<?xml version="1.0" encoding="UTF-8"?>
<svg version="1.1" xmlns="http://www.w3.org/2000/svg" width="2941" height="3024">
<path d="M0 0 C970.53 0 1941.06 0 2941 0 C2941 997.92 2941 1995.84 2941 3024 C1970.47 3024 999.94 3024 0 3024 C0 2026.08 0 1028.16 0 0 Z " fill="#000000" transform="translate(0,0)"/>
<path d="M0 0 C970.53 0 1941.06 0 2941 0 C2941 997.92 2941 1995.84 2941 3024 C1970.47 3024 999.94 3024 0 3024 C0 2026.08 0 1028.16 0 0 Z M311.53369141 294.62646484 C310.02404169 295.97846887 308.49053959 297.29759197 306.94921875 298.61328125 C277.07694913 324.50483331 260.26387081 363.28439282 256 402 C255.73621378 407.32002135 255.72940383 412.62896416 255.74700034 417.95343059 C255.74476118 419.5265219 255.74164721 421.09961216 255.73774853 422.67270023 C255.7295843 426.98261245 255.73377351 431.29243592 255.74004027 435.60234801 C255.74466312 440.31355118 255.73762271 445.02473985 255.73210663 449.73594007 C255.72401019 458.02044049 255.72334242 466.30491581 255.72751851 474.58941876 C255.73373604 486.99177231 255.72844029 499.39410284 255.7209211 511.79645472 C255.70844935 532.93434712 255.70550951 554.07223134 255.70775604 575.21012688 C255.71000425 596.63354316 255.70795398 618.05695083 255.70061111 639.48036575 C255.70014713 640.84679933 255.69968318 642.21323292 255.69921928 643.5796665 C255.69734018 649.08923829 255.69542758 654.59881006 255.6934769 660.10838183 C255.68798638 675.63888063 255.68322749 691.16937962 255.67897296 706.69987881 C255.67877786 707.41153907 255.67858276 708.12319932 255.67838175 708.85642504 C255.66737248 749.32544615 255.66676258 789.79446765 255.66594003 830.26349 C255.66581353 836.44952389 255.66568048 842.63555778 255.66553892 848.82159168 C255.66550354 850.37209224 255.66546879 851.92259281 255.66543468 853.47309337 C255.66465903 888.27495079 255.66030153 923.0768074 255.65517417 957.87866442 C255.65403105 965.6464708 255.6529231 973.41427718 255.6518129 981.18208357 C255.65170266 981.95314623 255.65159242 982.72420889 255.65147883 983.51863708 C255.65080983 988.19915137 255.65014229 992.87966565 255.64947571 997.56017993 C255.64914155 999.90488291 255.64880653 1002.24958589 255.64847143 1004.59428888 C255.6432677 1041.05017434 255.63880709 1077.50605988 255.63510704 1113.96194553 C255.6350263 1114.75626594 255.63494556 1115.55058634 255.63486237 1116.36897706 C255.62973621 1166.98508852 255.62793736 1217.60119953 255.62846304 1268.21731124 C255.62848855 1270.70619834 255.62851247 1273.19508544 255.62853586 1275.68397254 C255.62870054 1293.16926816 255.62890596 1310.65456379 255.62912162 1328.13985942 C255.62918316 1333.15323102 255.62924329 1338.16660261 255.62930325 1343.17997421 C255.62935344 1347.36177969 255.62940502 1351.54358516 255.62945947 1355.72539064 C255.63048227 1434.70543821 255.62764779 1513.68548171 255.60876465 1592.66552734 C255.60856593 1593.49697617 255.60836721 1594.32842499 255.60816248 1595.18506923 C255.60193977 1621.16350002 255.59520679 1647.14193069 255.58837891 1673.12036133 C255.58137597 1699.776583 255.574435 1726.43280468 255.56785011 1753.08902645 C255.56764706 1753.90980545 255.56744401 1754.73058444 255.5672348 1755.57623553 C255.55453477 1806.98646231 255.54669242 1858.39668794 255.54413414 1909.80691624 C255.54409408 1910.60103372 255.54405403 1911.3951512 255.54401276 1912.21333285 C255.54226204 1947.09039092 255.54162259 1981.96744893 255.54219453 2016.84450704 C255.54242309 2030.87592144 255.54253523 2044.90733584 255.54260117 2058.93875025 C255.54261397 2061.26519151 255.54263213 2063.59163278 255.54265147 2065.91807404 C255.54292439 2101.49354022 255.54023694 2137.06900266 255.52856112 2172.64446712 C255.52830977 2173.41137022 255.52805843 2174.17827332 255.52779947 2174.96841591 C255.52374156 2187.30452204 255.51945348 2199.64062809 255.51514585 2211.97673413 C255.50292408 2247.00589459 255.49284247 2282.03505003 255.49708819 2317.06421292 C255.49717362 2317.77535608 255.49725905 2318.48649924 255.49734706 2319.21919219 C255.49925402 2334.73606664 255.50228595 2350.25294066 255.50642049 2365.76981467 C255.50805308 2371.95888465 255.50954035 2378.14795466 255.51098251 2384.33702469 C255.51114382 2385.0121357 255.51130512 2385.6872467 255.51147131 2386.38281562 C255.5166673 2408.42558098 255.50839917 2430.46831069 255.49364014 2452.51107245 C255.47985666 2473.51627147 255.4803488 2494.52142996 255.49602441 2515.52662808 C255.50478771 2527.84078923 255.50264279 2540.15483102 255.48429084 2552.46898227 C255.47319086 2560.65261814 255.47666253 2568.83616513 255.49185641 2577.01979418 C255.50005915 2581.65542865 255.5022134 2586.29082864 255.48635503 2590.92644858 C255.33992502 2636.77280175 264.31666531 2679.08837794 296 2714 C296.83402344 2714.96550781 297.66804688 2715.93101562 298.52734375 2716.92578125 C304.16951359 2723.37015533 310.17972484 2728.82848356 317 2734 C318.57201172 2735.20269531 318.57201172 2735.20269531 320.17578125 2736.4296875 C340.34111621 2751.52785087 363.12724112 2761.77215944 388 2766 C388.97933387 2766.16688193 389.95866775 2766.33376386 390.96767841 2766.50570282 C399.81656653 2767.89741094 408.43785702 2768.28345139 417.38160932 2768.251849 C418.89214682 2768.25396247 420.40268329 2768.25695121 421.91321756 2768.26072434 C426.04915249 2768.26854026 430.18499372 2768.26400833 434.32092729 2768.25738853 C438.84293818 2768.25238183 443.36493497 2768.25905127 447.88694364 2768.26419219 C455.83789101 2768.27162867 463.78881158 2768.27163935 471.73976056 2768.26680271 C483.64278486 2768.25959773 495.54578607 2768.26392638 507.44880975 2768.27048406 C527.73596122 2768.28131941 548.02310341 2768.28263986 568.31025696 2768.27878571 C588.87095503 2768.27491077 609.43164619 2768.27536239 629.9923439 2768.2810955 C631.29072793 2768.28145433 632.58911196 2768.28181316 633.92684097 2768.28218286 C639.2149312 2768.28365776 644.50302143 2768.28516215 649.79111165 2768.28670432 C664.69720719 2768.29104625 679.60330286 2768.29468917 694.5093987 2768.29783666 C695.53396342 2768.29805334 695.53396342 2768.29805334 696.57922641 2768.29827439 C730.24760498 2768.30532453 763.91598292 2768.3046843 797.58436203 2768.3031559 C798.31409722 2768.30312283 799.04383241 2768.30308975 799.79568079 2768.30305568 C802.75003498 2768.30292137 805.70438916 2768.30278622 808.65874334 2768.3026503 C816.81982308 2768.30227513 824.98090282 2768.30191746 833.14198256 2768.30158257 C834.24723742 2768.3015365 834.24723742 2768.3015365 835.37482066 2768.3014895 C868.77733247 2768.3001153 902.17984356 2768.30264601 935.58235517 2768.30610864 C940.05122515 2768.30657188 944.52009512 2768.30702374 948.9889651 2768.30747276 C949.72769366 2768.30754704 950.46642223 2768.30762132 951.22753652 2768.30769785 C952.7209751 2768.30784801 954.21441369 2768.30799812 955.70785227 2768.30814821 C959.44736092 2768.30852429 963.18686956 2768.30890175 966.92637821 2768.3092793 C968.0385382 2768.3093915 968.0385382 2768.3093915 969.17316607 2768.30950597 C972.92253788 2768.30988445 976.67190969 2768.31026437 980.4212815 2768.31064692 C1015.41271375 2768.31421506 1050.40414602 2768.31707941 1085.39557838 2768.31923962 C1086.15798943 2768.31928686 1086.92040047 2768.31933409 1087.70591488 2768.31938276 C1136.28828391 2768.32237751 1184.87065238 2768.32225249 1233.45302142 2768.31981884 C1235.84187954 2768.31969925 1238.23073766 2768.31958087 1240.61959578 2768.31946275 C1258.20364955 2768.31859133 1275.78770331 2768.31766073 1293.37175708 2768.31671212 C1294.97539221 2768.31662573 1296.57902733 2768.31653936 1298.18266246 2768.316453 C1299.78695246 2768.31636656 1301.39124246 2768.31628012 1302.99553245 2768.31619367 C1304.18706591 2768.31612949 1304.18706591 2768.31612949 1305.40267074 2768.316064 C1309.41638389 2768.31584761 1313.43009704 2768.31563017 1317.44381019 2768.31541077 C1393.24716856 2768.31127249 1469.05052414 2768.31019323 1544.85388184 2768.3225708 C1545.65186026 2768.32270108 1546.44983868 2768.32283137 1547.27199826 2768.3229656 C1571.4021523 2768.32691747 1595.53230627 2768.33127704 1619.66246023 2768.33573675 C1646.04809752 2768.34061289 1672.43373483 2768.34544685 1698.81937218 2768.3500185 C1699.6071161 2768.35015527 1700.39486003 2768.35029204 1701.20647498 2768.35043296 C1750.54981342 2768.35898906 1799.89315107 2768.36389147 1849.23649025 2768.36472607 C1850.37982818 2768.36474597 1850.37982818 2768.36474597 1851.54626386 2768.36476628 C1885.02312031 2768.36534164 1918.49997671 2768.36505676 1951.97683314 2768.36384757 C1964.69978319 2768.36338837 1977.42273324 2768.36299613 1990.14568329 2768.36263681 C1993.12401804 2768.36255255 1996.1023528 2768.36246328 1999.08068756 2768.36236999 C2033.2253801 2768.36131478 2067.37007059 2768.36239072 2101.5147624 2768.37004495 C2102.61872993 2768.37029191 2102.61872993 2768.37029191 2103.74499982 2768.37054387 C2115.58354321 2768.37320204 2127.42208655 2768.37602118 2139.26062989 2768.37884789 C2172.8795439 2768.38686516 2206.49845489 2768.39320847 2240.11736989 2768.38877904 C2240.79998003 2768.38868964 2241.48259018 2768.38860024 2242.18588547 2768.38850813 C2256.41541071 2768.38661291 2270.64493572 2768.38401052 2284.87446065 2768.38050953 C2291.48085557 2768.37888802 2298.08725052 2768.37736885 2304.69364548 2768.37590981 C2305.98867087 2768.37561951 2307.28369626 2768.37532922 2308.61796484 2768.37503013 C2329.11854151 2768.37070576 2349.61910251 2768.37643378 2370.11967672 2768.38635 C2390.28107844 2768.39589034 2410.44245597 2768.39470791 2430.60385628 2768.38214377 C2442.42119544 2768.37509817 2454.23846504 2768.37621205 2466.05579923 2768.38949216 C2473.91171045 2768.39749685 2481.76756921 2768.39455239 2489.62347564 2768.38284252 C2494.07187145 2768.3765138 2498.52013021 2768.37468814 2502.9685182 2768.38640973 C2538.002447 2768.62215619 2538.002447 2768.62215619 2572 2761 C2572.92570801 2760.68506592 2572.92570801 2760.68506592 2573.87011719 2760.36376953 C2596.9128716 2752.48252939 2617.16655072 2740.57017826 2635 2724 C2635.84175781 2723.22914063 2636.68351562 2722.45828125 2637.55078125 2721.6640625 C2662.84195053 2697.49594692 2677.0236402 2664.93510871 2683 2631 C2683.25601641 2629.64844143 2683.25601641 2629.64844143 2683.51720488 2628.26957865 C2684.0105599 2624.92848639 2684.12546002 2621.78385156 2684.12608917 2618.40768893 C2684.1283133 2617.44567664 2684.1283133 2617.44567664 2684.13058237 2616.46422975 C2684.13433567 2614.31276506 2684.1309718 2612.16137114 2684.1276505 2610.00990659 C2684.12889339 2608.44383658 2684.13057419 2606.87776686 2684.13265286 2605.31169773 C2684.13711554 2600.98398837 2684.13531972 2596.65630033 2684.13255108 2592.32859038 C2684.13063312 2587.6119502 2684.13450789 2582.89531423 2684.13764787 2578.1786752 C2684.14236931 2569.87215262 2684.14334407 2561.56563599 2684.14191952 2553.25911228 C2684.13980256 2540.82372263 2684.14340582 2528.38833917 2684.1481343 2515.95295047 C2684.15601733 2494.76202763 2684.15909683 2473.57110646 2684.15958023 2452.38018227 C2684.16008215 2430.89535936 2684.16271765 2409.41053864 2684.16798782 2387.9257164 C2684.16832136 2386.55664429 2684.16865483 2385.18757217 2684.16898823 2383.81850006 C2684.17033632 2378.29850942 2684.17169962 2372.77851878 2684.17308033 2367.25852814 C2684.18825109 2306.5209074 2684.19502387 2245.78328712 2684.1995023 2185.04566478 C2684.19955899 2184.27728126 2684.19961568 2183.50889775 2684.19967409 2182.71722988 C2684.19996061 2178.83059157 2684.20024564 2174.94395326 2684.2005282 2171.05731494 C2684.20290301 2138.49878646 2684.20661263 2105.94025817 2684.2105653 2073.38172985 C2684.21245788 2057.79111329 2684.21428638 2042.20049672 2684.2160995 2026.60988015 C2684.21623479 2025.44680172 2684.21623479 2025.44680172 2684.2163728 2024.26022676 C2684.22070913 1986.94106108 2684.22463744 1949.62189537 2684.22809982 1912.30272961 C2684.2281737 1911.50662951 2684.22824757 1910.7105294 2684.22832368 1909.89030506 C2684.23301898 1859.15165628 2684.23584179 1808.41300757 2684.2374866 1757.67435861 C2684.23762218 1753.5141352 2684.23776121 1749.3539118 2684.23790014 1745.1936884 C2684.23812262 1738.52381362 2684.23834399 1731.85393883 2684.23856402 1725.18406405 C2684.23859129 1724.35755062 2684.23861856 1723.53103719 2684.23864666 1722.67947789 C2684.23870177 1721.00902641 2684.23875688 1719.33857494 2684.23881199 1717.66812346 C2684.23919861 1705.95033461 2684.23958655 1694.23254576 2684.23998112 1682.51475691 C2684.24012223 1678.32188248 2684.2402623 1674.12900806 2684.24040002 1669.93613364 C2684.24300409 1590.75087833 2684.24833303 1511.56562497 2684.26428223 1432.38037109 C2684.26445002 1431.54684724 2684.26461781 1430.71332338 2684.26479069 1429.85454122 C2684.27004135 1403.81180022 2684.27561571 1377.76905928 2684.28125 1351.72631836 C2684.28703098 1325.0047293 2684.29276154 1298.28314023 2684.29820633 1271.56155109 C2684.29837414 1270.73877694 2684.29854194 1269.91600278 2684.29871484 1269.06829607 C2684.30920832 1217.53739125 2684.31606972 1166.00648697 2684.31907272 1114.47558117 C2684.31911953 1113.67965608 2684.31916635 1112.88373099 2684.31921458 1112.06368696 C2684.32126526 1077.10791752 2684.32250932 1042.15214809 2684.32286063 1007.1963786 C2684.3230039 993.1333408 2684.32324256 979.070303 2684.32352469 965.0072652 C2684.32357022 962.67554031 2684.32361187 960.34381542 2684.3236528 958.01209054 C2684.32429886 922.34843454 2684.32725575 886.68478079 2684.33711338 851.02112603 C2684.33732575 850.25210833 2684.33753812 849.48309063 2684.33775693 848.69076936 C2684.34118569 836.32024023 2684.34479867 823.94971116 2684.34843333 811.57918209 C2684.35874787 776.45666225 2684.36752772 741.33414517 2684.36558867 706.21162355 C2684.36554993 705.49877699 2684.36551119 704.78593043 2684.36547127 704.05148246 C2684.36459465 688.49843031 2684.36288247 672.94537836 2684.36035165 657.39232639 C2684.35935491 651.18905008 2684.35846825 644.98577374 2684.35761642 638.78249741 C2684.35752054 638.1058294 2684.35742465 637.42916139 2684.35732586 636.73198829 C2684.3542473 614.62684436 2684.3612864 592.52172045 2684.37318979 570.41657936 C2684.38432024 549.35816551 2684.3847722 528.29977399 2684.37381961 507.2413598 C2684.36771753 494.89136479 2684.36983297 482.54143711 2684.38407158 470.19144843 C2684.39270898 461.98910336 2684.39046205 453.78680782 2684.37937287 445.58446582 C2684.37339132 440.93492344 2684.37201102 436.28551303 2684.38405773 431.63597943 C2684.50313556 382.40300445 2673.57863191 342.20299218 2640 305 C2639.28457031 304.19949219 2638.56914062 303.39898437 2637.83203125 302.57421875 C2612.2646659 275.52325386 2572.47656712 257.73727786 2535.44372414 255.81544585 C2531.52838252 255.74398408 2527.61571596 255.73275728 2523.70000631 255.74584967 C2522.18610055 255.74348481 2520.67219595 255.74024558 2519.15829369 255.73622141 C2515.00832213 255.72770922 2510.85844155 255.73155474 2506.70846891 255.73746906 C2502.17292845 255.74170871 2497.63740403 255.73429666 2493.10186747 255.72840545 C2485.12550318 255.71964903 2477.14916433 255.71832382 2469.17279641 255.72183973 C2457.23167376 255.72707038 2445.2905759 255.72080701 2433.3494561 255.71232625 C2412.99771533 255.69821792 2392.64598233 255.69365858 2372.29423714 255.69429779 C2351.66700178 255.6949195 2331.03977395 255.69124087 2310.41254044 255.68231773 C2309.11011647 255.68175795 2307.80769251 255.68119816 2306.46580115 255.68062141 C2301.16128009 255.67832979 2295.85675903 255.67601143 2290.55223799 255.67365811 C2275.59953791 255.66702642 2260.64683757 255.6611441 2245.69413698 255.65578258 C2245.00894458 255.65553683 2244.32375219 255.65529108 2243.61779639 255.65503789 C2203.90861566 255.6408872 2164.19943367 255.6376155 2124.49025086 255.63413096 C2119.27700478 255.63367295 2114.0637587 255.63321387 2108.85051262 255.63275199 C2107.35754302 255.63262015 2105.86457342 255.6324891 2104.37160382 255.63235885 C2071.6066147 255.62949851 2038.84162648 255.62355623 2006.07663794 255.61691041 C1991.84202103 255.61402535 1977.6074041 255.6112476 1963.37278718 255.60847133 C1962.62774677 255.60832587 1961.88270636 255.6081804 1961.11508897 255.60803053 C1925.25794807 255.60103343 1889.40080707 255.59480592 1853.54366589 255.5894537 C1852.77878812 255.58933945 1852.01391036 255.58922521 1851.22585448 255.58910751 C1802.48475129 255.5818498 1753.74364848 255.57812716 1705.00254479 255.57674492 C1701.0067692 255.5766306 1697.0109936 255.57651058 1693.01521801 255.57639134 C1679.38426252 255.57598663 1665.75330704 255.57560316 1652.12235155 255.57522071 C1645.6868097 255.57503994 1639.25126785 255.57485617 1632.815726 255.5746705 C1628.7887791 255.57455449 1624.7618322 255.5744402 1620.7348853 255.57432972 C1544.6854769 255.57223708 1468.63607454 255.56549213 1392.58666992 255.5401001 C1391.78616374 255.53983295 1390.98565756 255.53956579 1390.16089361 255.53929055 C1365.14949859 255.53092851 1340.13810377 255.52198766 1315.12670898 255.51293945 C1289.46272698 255.50365686 1263.79874496 255.49445575 1238.13476276 255.48571873 C1237.34452732 255.48544939 1236.55429187 255.48518006 1235.74010989 255.48490256 C1186.23828855 255.46805661 1136.73646891 255.45727587 1087.23464489 255.45299435 C1086.08757759 255.45289409 1086.08757759 255.45289409 1084.91733722 255.4527918 C1051.33072739 255.44986563 1017.74411762 255.44830196 984.15750766 255.44823663 C970.64493816 255.44820765 957.13236866 255.44802506 943.61979916 255.4477759 C941.37939405 255.44773677 939.13898894 255.44770419 936.89858383 255.44767293 C902.64387292 255.44716354 868.38916833 255.4428687 834.13446069 255.42716718 C833.39618254 255.42682913 832.6579044 255.42649109 831.89725419 255.42614281 C820.02179956 255.42068528 808.14634507 255.4149282 796.2708906 255.40913959 C762.54428055 255.39270982 728.81767856 255.37889522 695.09106386 255.38295543 C694.40616714 255.38303688 693.72127043 255.38311834 693.01561927 255.38320226 C678.07034169 255.38503254 663.12506475 255.38826098 648.17978777 255.3928586 C642.21841634 255.39467157 636.25704487 255.3963004 630.29567337 255.39787483 C628.99623368 255.39822489 627.69679398 255.39857494 626.35797733 255.39893561 C605.79287338 255.4040198 585.22781468 255.39232958 564.66272005 255.37363028 C544.43458993 255.35558785 524.20652482 255.35542322 503.97839466 255.3741926 C492.12400579 255.38465918 480.26981141 255.38153303 468.41544004 255.35807384 C460.53243692 255.34384821 452.64957705 255.34791536 444.76658355 255.36655534 C440.3043445 255.37660355 435.84248597 255.37919362 431.38027208 255.35911978 C387.12449993 255.17318151 345.24360784 264.23332353 311.53369141 294.62646484 Z " fill="#FEFEFE" transform="translate(0,0)"/>
<path d="M0 0 C0.90209515 -0.00292886 1.8041903 -0.00585773 2.73362167 -0.00887535 C5.79048506 -0.01631779 8.84715222 -0.00937412 11.90401495 -0.0026266 C14.11359246 -0.0050139 16.32316917 -0.00827743 18.53274423 -0.0123432 C24.65392026 -0.02102275 30.77503555 -0.01711223 36.89621262 -0.01128747 C42.85328385 -0.00756686 48.8103441 -0.01322943 54.7674124 -0.01863506 C67.10754623 -0.02949004 79.44766483 -0.03078515 91.7878021 -0.02693671 C104.30001185 -0.02306574 116.81221022 -0.02350712 129.32441938 -0.02924651 C130.11369665 -0.02960533 130.90297393 -0.02996416 131.7161687 -0.03033386 C134.930635 -0.03180872 138.14510129 -0.03331311 141.35956756 -0.03485533 C174.02777732 -0.05051006 206.69597928 -0.05316696 239.36419212 -0.05069926 C243.88219868 -0.05036082 248.40020525 -0.05003873 252.91821182 -0.04973358 C253.81558304 -0.04967254 254.71295426 -0.04961149 255.63751855 -0.0495486 C275.51204208 -0.04827748 295.38656452 -0.05087676 315.26108773 -0.05425965 C319.7974208 -0.0550304 324.33375388 -0.05577512 328.87008696 -0.05652466 C330.69069988 -0.05682635 332.51131281 -0.05712823 334.33192573 -0.0574303 C335.68559142 -0.05765482 335.68559142 -0.05765482 337.06660388 -0.05788388 C338.89198523 -0.05818741 340.71736658 -0.05849209 342.54274793 -0.05879792 C394.36149903 -0.06747514 446.18024917 -0.07211215 497.99900091 -0.06785029 C498.95911394 -0.06777223 499.91922697 -0.06769418 500.90843433 -0.06761376 C511.61495899 -0.06674094 522.32148365 -0.06581168 533.0280083 -0.06486312 C534.47799392 -0.06473486 534.47799392 -0.06473486 535.95727218 -0.064604 C543.98952954 -0.0638932 543.98952954 -0.0638932 547.68501068 -0.06356178 C609.47225838 -0.0580299 671.25949112 -0.06555519 733.04673612 -0.08433264 C748.60480913 -0.08905495 764.16288216 -0.09373551 779.72095525 -0.09816951 C780.67895635 -0.09844283 781.63695746 -0.09871615 782.6239889 -0.09899775 C812.16200638 -0.10737236 841.70002262 -0.11204905 871.23804128 -0.11287707 C872.6296545 -0.11291662 872.6296545 -0.11291662 874.04938111 -0.11295697 C894.41843697 -0.11349783 914.78749273 -0.11312513 935.15654855 -0.11191725 C942.44577392 -0.11149164 949.73499929 -0.11112651 957.02422466 -0.11078781 C958.83759001 -0.11070251 960.65095537 -0.11061358 962.46432072 -0.11052099 C991.3364431 -0.10907335 1020.20855531 -0.11619149 1049.08067525 -0.12752496 C1078.98803997 -0.13918868 1108.89538657 -0.13972397 1138.80275138 -0.12768153 C1142.01899146 -0.12642976 1145.23523157 -0.12522627 1148.45147169 -0.12406081 C1149.24077103 -0.12377052 1150.03007037 -0.12348022 1150.84328787 -0.12318113 C1163.30909135 -0.11886647 1175.77486895 -0.12456781 1188.24066837 -0.134501 C1200.51789649 -0.14407087 1212.79508495 -0.14281951 1225.07231081 -0.13029478 C1231.63188342 -0.12389158 1238.19138207 -0.1224307 1244.75095125 -0.13415811 C1250.73224135 -0.14475285 1256.71336001 -0.14125186 1262.69464114 -0.12705358 C1264.83178536 -0.12435105 1266.96894366 -0.12653958 1269.10607453 -0.13456073 C1284.38273372 -0.18793046 1299.20581696 1.1626713 1314.33335721 3.251849 C1316.74541093 3.57193523 1319.15762782 3.89075554 1321.56991667 4.20906394 C1374.53785635 11.6795192 1426.86678012 34.60499826 1468.33335721 68.251849 C1469.80482206 69.41780603 1469.80482206 69.41780603 1471.30601346 70.60731775 C1486.01113068 82.59821611 1500.0139604 96.21906042 1511.15074003 111.62050134 C1512.35466239 113.28123817 1513.58752871 114.91719666 1514.82554471 116.55263025 C1525.11859561 130.3347153 1533.59481717 145.43760439 1540.33335721 161.251849 C1540.8322244 162.39524743 1541.33109159 163.53864587 1541.84507596 164.71669275 C1561.10754934 212.08923225 1560.19974571 266.77020931 1540.64585721 313.876849 C1531.02145511 335.99062468 1519.10017497 355.98328524 1503.33335721 374.251849 C1502.3472244 375.40427087 1502.3472244 375.40427087 1501.34116971 376.579974 C1490.99705625 388.36835991 1479.84593345 399.77165731 1467.33335721 409.251849 C1466.68624784 409.75361657 1466.03913846 410.25538415 1465.37241971 410.77235681 C1416.01485786 448.9710114 1356.13224802 469.69632175 1294.33335721 475.251849 C1293.35851083 475.37204056 1293.35851083 475.37204056 1292.36397057 475.49466024 C1282.2200421 476.62884394 1272.02320453 476.39253449 1261.83177221 476.38327676 C1259.61875697 476.38492765 1257.40574203 476.38701449 1255.19272757 476.38949686 C1249.09945409 476.39505702 1243.00619469 476.39439229 1236.91291949 476.39271927 C1230.97190478 476.39206335 1225.03089371 476.39610049 1219.08988065 476.39998329 C1206.79249736 476.40784695 1194.49511698 476.41094485 1182.19773138 476.41142923 C1169.73727818 476.41193185 1157.27682822 476.41458118 1144.81637609 476.41983682 C1144.02912925 476.42016695 1143.24188242 476.42049709 1142.43077962 476.42083722 C1139.22441682 476.42218723 1136.01805402 476.4235499 1132.81169123 476.42492933 C1094.86981645 476.44122354 1056.9279423 476.44761628 1018.98606462 476.4523772 C1000.09871438 476.45476056 981.21136449 476.45846399 962.32401453 476.4624143 C901.75102416 476.47507614 841.17803381 476.48586176 780.60504213 476.48925475 C777.71073288 476.489417 774.81642362 476.48958255 771.92211436 476.48974914 C766.11749505 476.49008294 760.31287574 476.49041342 754.50825644 476.4907437 C747.71240054 476.4911306 740.91654465 476.4915202 734.12068876 476.49191476 C732.17565831 476.49202718 730.23062785 476.4921386 728.28559739 476.49224902 C665.77786643 476.49580073 603.27014695 476.51089006 540.76242037 476.53418676 C495.84076336 476.55092234 450.9191085 476.56640062 405.99744833 476.57092172 C404.61255179 476.57106195 404.61255179 476.57106195 403.19967755 476.57120501 C382.93480527 476.57322376 362.66993303 476.57438005 342.40506065 476.5747336 C335.15463672 476.57486977 327.90421279 476.57507877 320.65378886 476.57532685 C318.85002201 476.57538841 317.04625517 476.57544673 315.24248832 476.5755018 C286.47380815 476.57642246 257.70513996 476.5864006 228.93646373 476.60095928 C199.97576079 476.6155566 171.01507255 476.62062858 142.05436658 476.61253974 C138.0568884 476.61142429 134.05941019 476.61041365 130.06193197 476.60946542 C128.88646461 476.60918047 128.88646461 476.60918047 127.68725044 476.60888976 C115.25527274 476.60615106 102.82332214 476.61351421 90.39135033 476.62503879 C78.1811912 476.63614923 65.97107057 476.63664141 53.76091087 476.6256686 C47.22357533 476.62008804 40.68631538 476.61968175 34.14898552 476.63217732 C28.21138646 476.64343263 22.27396015 476.64108492 16.33636737 476.62751025 C14.19262823 476.62505844 12.04887615 476.62772215 9.90515123 476.63590673 C7.00976083 476.6462414 4.11498935 476.6383083 1.21962214 476.62559515 C-0.03625603 476.6367079 -0.03625603 476.6367079 -1.31750548 476.64804514 C-5.92156446 476.60523409 -8.93141245 476.23988147 -12.66664279 473.251849 C-15.67646797 468.71812083 -16.09666924 464.66605055 -16.04695952 459.36194879 C-16.05161944 458.58185978 -16.05627936 457.80177077 -16.06108049 456.9980427 C-16.07304512 454.38028463 -16.06362949 451.76304416 -16.05432284 449.14528161 C-16.0584951 447.25109285 -16.06397203 445.35690659 -16.07064265 443.46272498 C-16.08512986 438.25449273 -16.0808423 433.04641828 -16.07347584 427.83817726 C-16.06875462 422.22255835 -16.08124468 416.60697409 -16.09149325 410.99136621 C-16.10870663 399.98914407 -16.10951606 388.98697898 -16.10428035 377.98474687 C-16.10024245 369.04471719 -16.10167767 360.1047044 -16.1070286 351.16467553 C-16.10777703 349.89333 -16.10852545 348.62198447 -16.10929655 347.31211331 C-16.11082799 344.7295739 -16.11236634 342.14703449 -16.11391152 339.56449509 C-16.12374312 322.22013636 -16.12790096 304.8757875 -16.12028563 287.53142816 C-16.11983987 286.51399998 -16.11983987 286.51399998 -16.11938511 285.47601769 C-16.11693613 279.96773695 -16.11432456 274.45945628 -16.11170097 268.95117562 C-16.10159667 247.46103838 -16.10995711 225.97097925 -16.13319552 204.4808529 C-16.15925797 180.34005024 -16.17206938 156.19930608 -16.16500777 132.05848438 C-16.16151015 119.27488703 -16.1637835 106.49135386 -16.1812588 93.70776635 C-16.19594894 82.82642168 -16.19665793 71.94518636 -16.17918789 61.06384391 C-16.17064958 55.50970955 -16.16859729 49.95577082 -16.18383944 44.40164644 C-16.19761214 39.3201819 -16.1930194 34.23908195 -16.1736002 29.15763891 C-16.16981703 27.31654039 -16.17282831 25.47541317 -16.18321186 23.63434005 C-16.19630168 21.13636677 -16.18487091 18.63966684 -16.16721404 16.1417492 C-16.17686455 15.42283181 -16.18651506 14.70391442 -16.19645801 13.96321166 C-16.12345175 8.95126749 -14.82291522 6.104404 -11.66664279 2.251849 C-7.76981368 -0.34603708 -4.51956734 -0.02493558 0 0 Z " fill="#FEFEFE" transform="translate(699.6666427850723,1659.7481510043144)"/>
<path d="M0 0 C1.79547982 -0.00452395 1.79547982 -0.00452395 3.62723196 -0.0091393 C4.97012968 -0.00744004 6.3130273 -0.00564928 7.6559248 -0.00377727 C9.07711581 -0.00542565 10.49830638 -0.00751135 11.91949618 -0.00999737 C15.85639938 -0.01559023 19.79328095 -0.01488682 23.73018686 -0.01321978 C28.00183301 -0.01249152 32.27347291 -0.01750501 36.54511642 -0.0217948 C45.0324865 -0.02939338 53.51985029 -0.03156881 62.00722342 -0.03212385 C72.16883675 -0.03303576 82.33044423 -0.03969851 92.49205506 -0.04647068 C117.06778012 -0.06255723 141.64350458 -0.06843854 166.21923396 -0.07321942 C177.8511397 -0.07555437 189.48304494 -0.07915708 201.11495029 -0.0829148 C240.94496326 -0.09575738 280.77497596 -0.10647223 320.60499096 -0.1099174 C323.10724841 -0.11013903 325.60950585 -0.11036082 328.1117633 -0.11058275 C330.62007097 -0.11080339 333.12837865 -0.11102388 335.63668633 -0.1112442 C340.66874917 -0.11168675 345.70081202 -0.11213387 350.73287487 -0.11258388 C351.98054147 -0.11269327 353.22820806 -0.11280266 354.51368274 -0.11291536 C394.90718872 -0.11654046 435.3006767 -0.13243617 475.69417579 -0.15577424 C518.41283839 -0.18041043 561.1314907 -0.19409216 603.8501606 -0.19528532 C608.54709848 -0.19545677 613.24403636 -0.19567219 617.94097424 -0.19591975 C619.09746896 -0.19597552 620.25396368 -0.19603129 621.44550369 -0.19608875 C640.00745487 -0.19723644 658.56938752 -0.20823519 677.13133246 -0.22280681 C695.82346475 -0.23722571 714.51557346 -0.24037866 733.20770979 -0.23236683 C744.2917503 -0.22793456 755.37571429 -0.23167386 766.45974464 -0.24760534 C773.8913792 -0.25744321 781.32296088 -0.25609428 788.7545951 -0.24616911 C792.97132659 -0.24083934 797.18791255 -0.23986026 801.40463126 -0.25267783 C817.96204203 -0.29973741 834.3710631 0.04608699 850.87143993 1.50999379 C851.57120284 1.57148834 852.27096574 1.63298288 852.99193358 1.69634089 C874.16478175 3.60311115 894.17089559 8.83894949 914.41744518 15.1276505 C915.56213268 15.47569737 916.70682018 15.82374425 917.88619518 16.182338 C920.76068504 17.0947463 923.58691761 18.08653691 926.41744518 19.1276505 C927.41880505 19.49116612 927.41880505 19.49116612 928.4403944 19.8620255 C955.39503326 29.76349128 981.17401197 43.91300238 1003.41744518 62.1276505 C1003.97689831 62.58558995 1004.53635143 63.04352941 1005.11275768 63.51534581 C1010.98658025 68.34544542 1016.73192002 73.23509494 1022.01119518 78.7214005 C1023.52820791 80.29736054 1023.52820791 80.29736054 1025.91744518 82.0651505 C1028.79376592 84.43811511 1031.07649194 87.05770977 1033.48775768 89.8932755 C1034.76281479 91.36965741 1036.07019327 92.81879553 1037.40963268 94.2370255 C1063.60567161 122.0643196 1080.8094443 158.69334118 1089.10494518 195.6901505 C1089.31981579 196.63608068 1089.53468639 197.58201085 1089.75606823 198.55660558 C1095.53514603 225.29379438 1094.94665731 257.65303693 1088.41744518 284.1276505 C1088.20313854 285.01710362 1087.9888319 285.90655675 1087.76803112 286.822963 C1083.06878193 305.81148667 1075.73363519 323.94549214 1066.41744518 341.1276505 C1066.04925671 341.80892003 1065.68106823 342.49018956 1065.30172253 343.19210362 C1059.02616519 354.65435732 1051.64983055 364.99395842 1043.41744518 375.1276505 C1042.91454967 375.74768956 1042.41165417 376.36772862 1041.8935194 377.00655675 C1031.2899601 389.96451903 1019.67429666 401.87093514 1006.41744518 412.1276505 C1004.91117565 413.32454503 1004.91117565 413.32454503 1003.37447643 414.54561925 C977.05663834 435.33096014 947.03943547 450.53990335 915.29391003 461.16378331 C913.50387872 461.76360029 911.71705568 462.37319331 909.93551159 462.99776769 C898.4655361 467.01577304 886.80307539 469.32051545 874.85494518 471.3776505 C874.13212353 471.50280034 873.40930187 471.62795018 872.66457653 471.75689244 C867.59259864 472.62445434 862.51009035 473.39232893 857.41744518 474.1276505 C856.16030126 474.31071677 854.90315734 474.49378304 853.60791814 474.68239677 C838.00869878 476.71927744 822.30016113 476.41697254 806.60176429 476.39698833 C802.26513943 476.39369092 797.92853323 476.40202945 793.59191453 476.40880668 C786.0071397 476.41906689 778.42239038 476.42195744 770.83760929 476.41989446 C759.55921557 476.41683437 748.2808499 476.42519027 737.00246164 476.43564371 C715.68993268 476.45494683 694.37741337 476.46061039 673.06487669 476.46175782 C656.61514093 476.46267768 640.16540894 476.46679833 623.7156744 476.47315907 C618.97720572 476.47495416 614.23873703 476.4767338 609.50026834 476.47850883 C608.32225312 476.47895093 607.1442379 476.47939302 605.93052525 476.47984852 C572.81803481 476.49214851 539.70554568 476.50005041 506.59305286 476.49916196 C505.34571634 476.4991308 504.09837981 476.49909964 502.81324521 476.49906754 C496.49142659 476.49890133 490.16960798 476.49870325 483.84778936 476.49849813 C482.59227579 476.49845824 481.33676221 476.49841835 480.04320277 476.49837725 C477.50425848 476.49829637 474.96531418 476.49821278 472.42636989 476.49812646 C432.87552875 476.49689944 393.32472184 476.51194542 353.7738905 476.53927159 C309.33192273 476.56996454 264.88997745 476.58720605 220.4479984 476.58534515 C215.71393069 476.58519588 210.97986297 476.58509847 206.24579525 476.58503652 C205.08015372 476.58501321 203.91451218 476.5849899 202.71354818 476.58496588 C183.9301483 476.58490426 165.14677808 476.597692 146.36338703 476.61490105 C127.50915386 476.63181868 108.65496428 476.63386154 89.80072774 476.6206824 C78.59050617 476.61326961 67.38041671 476.61702069 56.17020903 476.63656708 C48.69208072 476.64850868 41.21404876 476.64604138 33.73592499 476.63162609 C29.46912233 476.62381404 25.20257652 476.62245098 20.93579133 476.63854079 C17.0584805 476.65303478 13.18164186 476.64930236 9.30435251 476.63069306 C7.90648836 476.62723488 6.50858781 476.63055761 5.11076063 476.64129547 C3.21879608 476.65486212 1.32669529 476.64150975 -0.56526029 476.62674582 C-2.13935738 476.62701048 -2.13935738 476.62701048 -3.74525442 476.6272805 C-7.31866849 475.99802571 -8.98676129 474.61210903 -11.58255482 472.1276505 C-13.92047356 468.04238767 -13.86794703 463.95670741 -13.84541035 459.36359143 C-13.84951561 458.58495587 -13.85362088 457.8063203 -13.85785055 457.00408971 C-13.86919272 454.38535205 -13.86627588 451.76682469 -13.86343861 449.14806676 C-13.86860574 447.2554545 -13.87463202 445.36284442 -13.88144541 443.47023737 C-13.89759346 438.26171505 -13.90116499 433.05324783 -13.90264034 427.84470344 C-13.90633997 422.23041133 -13.92143374 416.61614787 -13.93491077 411.0018723 C-13.96208241 398.72316832 -13.97412713 386.4444774 -13.98293209 374.16574836 C-13.98845511 366.50192702 -13.99692939 358.83811073 -14.00594044 351.1742928 C-14.03032456 329.96325588 -14.05099542 308.75222324 -14.05769062 287.54117322 C-14.05813389 286.16976208 -14.05857745 284.79835095 -14.05902132 283.42693981 C-14.0594626 282.0522202 -14.05990357 280.67750059 -14.06034422 279.30278099 C-14.06122932 276.54485988 -14.06212356 273.78693878 -14.06302357 271.02901769 C-14.06324235 270.34521464 -14.06346113 269.66141158 -14.06368654 268.95688723 C-14.07095031 246.77684018 -14.10280198 224.59692376 -14.14940429 202.41692674 C-14.19858353 178.96762149 -14.22602195 155.51841176 -14.22842646 132.06904471 C-14.23026176 119.28591148 -14.24181168 106.50294936 -14.27806568 93.71986318 C-14.30882034 82.83739917 -14.31913665 71.95515917 -14.30258948 61.07265998 C-14.29475996 55.51830835 -14.29671498 49.96440815 -14.32470417 44.41011167 C-14.35008438 39.32718506 -14.34787509 34.24505132 -14.32352275 29.16212659 C-14.31959161 27.32164473 -14.32584496 25.48110764 -14.34321147 23.64070351 C-14.48006774 8.15954089 -14.48006774 8.15954089 -10.66161823 3.55055356 C-6.61403585 0.36552668 -5.05081464 0.00250765 0 0 Z " fill="#FEFEFE" transform="translate(1161.5825548171997,887.8723495006561)"/>
</svg>
