<svg version="1.1" viewBox="0.0 0.0 540.0 540.0" fill="none" stroke="none" stroke-linecap="square" stroke-miterlimit="10" xmlns:xlink="http://www.w3.org/1999/xlink" xmlns="http://www.w3.org/2000/svg">
  <clipPath id="g374680eaacc_1_41.0">
    <path d="m0 0l540.0 0l0 540.0l-540.0 0l0 -540.0z" clip-rule="nonzero"/>
  </clipPath>
  <g clip-path="url(#g374680eaacc_1_41.0)">
    <path fill="#ffffff" d="m0 0l540.0 0l0 540.0l-540.0 0z" fill-rule="evenodd"/>
    
    <!-- Bottom bar with rounded ends -->
    <g filter="url(#shadowFilter-g374680eaacc_1_41.1)">
      <use xlink:href="#g374680eaacc_1_41.1" transform="matrix(1.0 0.0 0.0 1.0 0.0 11.139015748031486)"/>
    </g>
    <defs>
      <filter id="shadowFilter-g374680eaacc_1_41.1" filterUnits="userSpaceOnUse">
        <feGaussianBlur in="SourceAlpha" stdDeviation="11.139015" result="blur"/>
        <feComponentTransfer in="blur" color-interpolation-filters="sRGB">
          <feFuncR type="linear" slope="0" intercept="0.0"/>
          <feFuncG type="linear" slope="0" intercept="0.0"/>
          <feFuncB type="linear" slope="0" intercept="0.0"/>
          <feFuncA type="linear" slope="0.25" intercept="0"/>
        </feComponentTransfer>
      </filter>
    </defs>
    <g id="g374680eaacc_1_41.1">
      <path fill="#000000" fill-opacity="0.0" d="m40 480l460 0" fill-rule="evenodd"/>
      <path stroke="#000000" stroke-width="20.0" stroke-linejoin="round" stroke-linecap="round" d="m40 480l460 0" fill-rule="evenodd"/>
    </g>
    
    <!-- Letter B -->
    <g filter="url(#shadowFilter-g374680eaacc_1_41.2)">
      <use xlink:href="#g374680eaacc_1_41.2" transform="matrix(1.0 0.0 0.0 1.0 0.0 11.139015748031486)"/>
    </g>
    <defs>
      <filter id="shadowFilter-g374680eaacc_1_41.2" filterUnits="userSpaceOnUse">
        <feGaussianBlur in="SourceAlpha" stdDeviation="11.139015" result="blur"/>
        <feComponentTransfer in="blur" color-interpolation-filters="sRGB">
          <feFuncR type="linear" slope="0" intercept="0.0"/>
          <feFuncG type="linear" slope="0" intercept="0.0"/>
          <feFuncB type="linear" slope="0" intercept="0.0"/>
          <feFuncA type="linear" slope="0.25" intercept="0"/>
        </feComponentTransfer>
      </filter>
    </defs>
    <g id="g374680eaacc_1_41.2" transform="scale(1.3) translate(-70, -70)">
      <path fill="#000000" fill-opacity="0.0" d="m83.41208 -19.2l373.16537 0l0 441.60632l-373.16537 0z" fill-rule="evenodd"/>
      <path fill="#000000" d="m366.4902 262.6937q11.140625 7.65625 18.09375 19.234375q6.96875 11.5625 6.96875 27.234375q0 18.796875 -7.921875 31.765625q-7.90625 12.953125 -22.703125 20.4375q-15.671875 8.015625 -36.125 11.328125q-20.4375 3.296875 -48.109344 3.296875l-128.26562 0l0 -13.578125q5.390625 -0.515625 13.5625 -1.5625q8.1875 -1.046875 11.5 -2.4375q6.4375 -2.609375 8.78125 -6.875q2.34375 -4.265625 2.34375 -11.046875l0 -174.04686q0 -6.265625 -1.921875 -10.4375q-1.90625 -4.1875 -9.203125 -7.3125q-5.40625 -2.265625 -12.546875 -3.734375q-7.125 -1.484375 -12.515625 -2.359375l0 -13.578125l134.17188 0q50.65622 0 73.109344 13.921875q22.453125 13.921875 22.453125 41.078125q0 12.53125 -5.046875 22.015625q-5.046875 9.484375 -14.453125 16.453125q-8.53125 6.4375 -20.375 11.140625q-11.828125 4.6875 -25.390625 7.828125l0 3.296875q13.5625 1.40625 28.1875 6.015625q14.625 4.609375 25.40625 11.92186zm-56.03125 -74.312485q0 -20.546875 -11.5780945 -32.03125q-11.578125 -11.484375 -34.71875 -11.484375q-3.3125 0 -8.625 0.265625q-5.296875 0.25 -9.125 0.421875l0 91.546875l9.046875 0q28.1875 0 41.59375 -13.140625q13.4062195 -13.140625 13.4062195 -35.578125zm12.171875 118.51561q0 -25.765625 -15.3125 -39.5q-15.3124695 -13.749985 -44.03122 -13.749985q-3.3125 0 -8.796875 0.265625q-5.46875 0.25 -8.078125 0.421875l0 90.32811q1.5625 6.4375 9.734375 10.875q8.1875 4.4375 19.84375 4.4375q20.71875 0 33.671844 -13.921875q12.96875 -13.921875 12.96875 -39.15625z" fill-rule="nonzero"/>
    </g>
  </g>
</svg>