<?xml version="1.0" encoding="UTF-8"?>
<svg version="1.1" xmlns="http://www.w3.org/2000/svg" width="2426" height="2513">
<path d="M200 0 L2226 0 Q2426 0 2426 200 L2426 2313 Q2426 2513 2226 2513 L200 2513 Q0 2513 0 2313 L0 200 Q0 0 200 0 Z" fill="#000000" transform="translate(0,0)"/>
<path d="M0 0 C0.90209515 -0.00292886 1.8041903 -0.00585773 2.73362167 -0.00887535 C5.79048506 -0.01631779 8.84715222 -0.00937412 11.90401495 -0.0026266 C14.11359246 -0.0050139 16.32316917 -0.00827743 18.53274423 -0.0123432 C24.65392026 -0.02102275 30.77503555 -0.01711223 36.89621262 -0.01128747 C42.85328385 -0.00756686 48.8103441 -0.01322943 54.7674124 -0.01863506 C67.10754623 -0.02949004 79.44766483 -0.03078515 91.7878021 -0.02693671 C104.30001185 -0.02306574 116.81221022 -0.02350712 129.32441938 -0.02924651 C130.11369665 -0.02960533 130.90297393 -0.02996416 131.7161687 -0.03033386 C134.930635 -0.03180872 138.14510129 -0.03331311 141.35956756 -0.03485533 C174.02777732 -0.05051006 206.69597928 -0.05316696 239.36419212 -0.05069926 C243.88219868 -0.05036082 248.40020525 -0.05003873 252.91821182 -0.04973358 C253.81558304 -0.04967254 254.71295426 -0.04961149 255.63751855 -0.0495486 C275.51204208 -0.04827748 295.38656452 -0.05087676 315.26108773 -0.05425965 C319.7974208 -0.0550304 324.33375388 -0.05577512 328.87008696 -0.05652466 C330.69069988 -0.05682635 332.51131281 -0.05712823 334.33192573 -0.0574303 C335.68559142 -0.05765482 335.68559142 -0.05765482 337.06660388 -0.05788388 C338.89198523 -0.05818741 340.71736658 -0.05849209 342.54274793 -0.05879792 C394.36149903 -0.06747514 446.18024917 -0.07211215 497.99900091 -0.06785029 C498.95911394 -0.06777223 499.91922697 -0.06769418 500.90843433 -0.06761376 C511.61495899 -0.06674094 522.32148365 -0.06581168 533.0280083 -0.06486312 C534.47799392 -0.06473486 534.47799392 -0.06473486 535.95727218 -0.064604 C543.98952954 -0.0638932 543.98952954 -0.0638932 547.68501068 -0.06356178 C609.47225838 -0.0580299 671.25949112 -0.06555519 733.04673612 -0.08433264 C748.60480913 -0.08905495 764.16288216 -0.09373551 779.72095525 -0.09816951 C780.67895635 -0.09844283 781.63695746 -0.09871615 782.6239889 -0.09899775 C812.16200638 -0.10737236 841.70002262 -0.11204905 871.23804128 -0.11287707 C872.6296545 -0.11291662 872.6296545 -0.11291662 874.04938111 -0.11295697 C894.41843697 -0.11349783 914.78749273 -0.11312513 935.15654855 -0.11191725 C942.44577392 -0.11149164 949.73499929 -0.11112651 957.02422466 -0.11078781 C958.83759001 -0.11070251 960.65095537 -0.11061358 962.46432072 -0.11052099 C991.3364431 -0.10907335 1020.20855531 -0.11619149 1049.08067525 -0.12752496 C1078.98803997 -0.13918868 1108.89538657 -0.13972397 1138.80275138 -0.12768153 C1142.01899146 -0.12642976 1145.23523157 -0.12522627 1148.45147169 -0.12406081 C1149.24077103 -0.12377052 1150.03007037 -0.12348022 1150.84328787 -0.12318113 C1163.30909135 -0.11886647 1175.77486895 -0.12456781 1188.24066837 -0.134501 C1200.51789649 -0.14407087 1212.79508495 -0.14281951 1225.07231081 -0.13029478 C1231.63188342 -0.12389158 1238.19138207 -0.1224307 1244.75095125 -0.13415811 C1250.73224135 -0.14475285 1256.71336001 -0.14125186 1262.69464114 -0.12705358 C1264.83178536 -0.12435105 1266.96894366 -0.12653958 1269.10607453 -0.13456073 C1284.38273372 -0.18793046 1299.20581696 1.1626713 1314.33335721 3.251849 C1316.74541093 3.57193523 1319.15762782 3.89075554 1321.56991667 4.20906394 C1374.53785635 11.6795192 1426.86678012 34.60499826 1468.33335721 68.251849 C1469.80482206 69.41780603 1469.80482206 69.41780603 1471.30601346 70.60731775 C1486.01113068 82.59821611 1500.0139604 96.21906042 1511.15074003 111.62050134 C1512.35466239 113.28123817 1513.58752871 114.91719666 1514.82554471 116.55263025 C1525.11859561 130.3347153 1533.59481717 145.43760439 1540.33335721 161.251849 C1540.8322244 162.39524743 1541.33109159 163.53864587 1541.84507596 164.71669275 C1561.10754934 212.08923225 1560.19974571 266.77020931 1540.64585721 313.876849 C1531.02145511 335.99062468 1519.10017497 355.98328524 1503.33335721 374.251849 C1502.3472244 375.40427087 1502.3472244 375.40427087 1501.34116971 376.579974 C1490.99705625 388.36835991 1479.84593345 399.77165731 1467.33335721 409.251849 C1466.68624784 409.75361657 1466.03913846 410.25538415 1465.37241971 410.77235681 C1416.01485786 448.9710114 1356.13224802 469.69632175 1294.33335721 475.251849 C1293.35851083 475.37204056 1293.35851083 475.37204056 1292.36397057 475.49466024 C1282.2200421 476.62884394 1272.02320453 476.39253449 1261.83177221 476.38327676 C1259.61875697 476.38492765 1257.40574203 476.38701449 1255.19272757 476.38949686 C1249.09945409 476.39505702 1243.00619469 476.39439229 1236.91291949 476.39271927 C1230.97190478 476.39206335 1225.03089371 476.39610049 1219.08988065 476.39998329 C1206.79249736 476.40784695 1194.49511698 476.41094485 1182.19773138 476.41142923 C1169.73727818 476.41193185 1157.27682822 476.41458118 1144.81637609 476.41983682 C1144.02912925 476.42016695 1143.24188242 476.42049709 1142.43077962 476.42083722 C1139.22441682 476.42218723 1136.01805402 476.4235499 1132.81169123 476.42492933 C1094.86981645 476.44122354 1056.9279423 476.44761628 1018.98606462 476.4523772 C1000.09871438 476.45476056 981.21136449 476.45846399 962.32401453 476.4624143 C901.75102416 476.47507614 841.17803381 476.48586176 780.60504213 476.48925475 C777.71073288 476.489417 774.81642362 476.48958255 771.92211436 476.48974914 C766.11749505 476.49008294 760.31287574 476.49041342 754.50825644 476.4907437 C747.71240054 476.4911306 740.91654465 476.4915202 734.12068876 476.49191476 C732.17565831 476.49202718 730.23062785 476.4921386 728.28559739 476.49224902 C665.77786643 476.49580073 603.27014695 476.51089006 540.76242037 476.53418676 C495.84076336 476.55092234 450.9191085 476.56640062 405.99744833 476.57092172 C404.61255179 476.57106195 404.61255179 476.57106195 403.19967755 476.57120501 C382.93480527 476.57322376 362.66993303 476.57438005 342.40506065 476.5747336 C335.15463672 476.57486977 327.90421279 476.57507877 320.65378886 476.57532685 C318.85002201 476.57538841 317.04625517 476.57544673 315.24248832 476.5755018 C286.47380815 476.57642246 257.70513996 476.5864006 228.93646373 476.60095928 C199.97576079 476.6155566 171.01507255 476.62062858 142.05436658 476.61253974 C138.0568884 476.61142429 134.05941019 476.61041365 130.06193197 476.60946542 C128.88646461 476.60918047 128.88646461 476.60918047 127.68725044 476.60888976 C115.25527274 476.60615106 102.82332214 476.61351421 90.39135033 476.62503879 C78.1811912 476.63614923 65.97107057 476.63664141 53.76091087 476.6256686 C47.22357533 476.62008804 40.68631538 476.61968175 34.14898552 476.63217732 C28.21138646 476.64343263 22.27396015 476.64108492 16.33636737 476.62751025 C14.19262823 476.62505844 12.04887615 476.62772215 9.90515123 476.63590673 C7.00976083 476.6462414 4.11498935 476.6383083 1.21962214 476.62559515 C-0.03625603 476.6367079 -0.03625603 476.6367079 -1.31750548 476.64804514 C-5.92156446 476.60523409 -8.93141245 476.23988147 -12.66664279 473.251849 C-15.67646797 468.71812083 -16.09666924 464.66605055 -16.04695952 459.36194879 C-16.05161944 458.58185978 -16.05627936 457.80177077 -16.06108049 456.9980427 C-16.07304512 454.38028463 -16.06362949 451.76304416 -16.05432284 449.14528161 C-16.0584951 447.25109285 -16.06397203 445.35690659 -16.07064265 443.46272498 C-16.08512986 438.25449273 -16.0808423 433.04641828 -16.07347584 427.83817726 C-16.06875462 422.22255835 -16.08124468 416.60697409 -16.09149325 410.99136621 C-16.10870663 399.98914407 -16.10951606 388.98697898 -16.10428035 377.98474687 C-16.10024245 369.04471719 -16.10167767 360.1047044 -16.1070286 351.16467553 C-16.10777703 349.89333 -16.10852545 348.62198447 -16.10929655 347.31211331 C-16.11082799 344.7295739 -16.11236634 342.14703449 -16.11391152 339.56449509 C-16.12374312 322.22013636 -16.12790096 304.8757875 -16.12028563 287.53142816 C-16.11983987 286.51399998 -16.11983987 286.51399998 -16.11938511 285.47601769 C-16.11693613 279.96773695 -16.11432456 274.45945628 -16.11170097 268.95117562 C-16.10159667 247.46103838 -16.10995711 225.97097925 -16.13319552 204.4808529 C-16.15925797 180.34005024 -16.17206938 156.19930608 -16.16500777 132.05848438 C-16.16151015 119.27488703 -16.1637835 106.49135386 -16.1812588 93.70776635 C-16.19594894 82.82642168 -16.19665793 71.94518636 -16.17918789 61.06384391 C-16.17064958 55.50970955 -16.16859729 49.95577082 -16.18383944 44.40164644 C-16.19761214 39.3201819 -16.1930194 34.23908195 -16.1736002 29.15763891 C-16.16981703 27.31654039 -16.17282831 25.47541317 -16.18321186 23.63434005 C-16.19630168 21.13636677 -16.18487091 18.63966684 -16.16721404 16.1417492 C-16.17686455 15.42283181 -16.18651506 14.70391442 -16.19645801 13.96321166 C-16.12345175 8.95126749 -14.82291522 6.104404 -11.66664279 2.251849 C-7.76981368 -0.34603708 -4.51956734 -0.02493558 0 0 Z " fill="#FEFEFE" transform="translate(442.6666427850723,1403.7481510043144)"/>
<path d="M0 0 C1.79547982 -0.00452395 1.79547982 -0.00452395 3.62723196 -0.0091393 C4.97012968 -0.00744004 6.3130273 -0.00564928 7.6559248 -0.00377727 C9.07711581 -0.00542565 10.49830638 -0.00751135 11.91949618 -0.00999737 C15.85639938 -0.01559023 19.79328095 -0.01488682 23.73018686 -0.01321978 C28.00183301 -0.01249152 32.27347291 -0.01750501 36.54511642 -0.0217948 C45.0324865 -0.02939338 53.51985029 -0.03156881 62.00722342 -0.03212385 C72.16883675 -0.03303576 82.33044423 -0.03969851 92.49205506 -0.04647068 C117.06778012 -0.06255723 141.64350458 -0.06843854 166.21923396 -0.07321942 C177.8511397 -0.07555437 189.48304494 -0.07915708 201.11495029 -0.0829148 C240.94496326 -0.09575738 280.77497596 -0.10647223 320.60499096 -0.1099174 C323.10724841 -0.11013903 325.60950585 -0.11036082 328.1117633 -0.11058275 C330.62007097 -0.11080339 333.12837865 -0.11102388 335.63668633 -0.1112442 C340.66874917 -0.11168675 345.70081202 -0.11213387 350.73287487 -0.11258388 C351.98054147 -0.11269327 353.22820806 -0.11280266 354.51368274 -0.11291536 C394.90718872 -0.11654046 435.3006767 -0.13243617 475.69417579 -0.15577424 C518.41283839 -0.18041043 561.1314907 -0.19409216 603.8501606 -0.19528532 C608.54709848 -0.19545677 613.24403636 -0.19567219 617.94097424 -0.19591975 C619.09746896 -0.19597552 620.25396368 -0.19603129 621.44550369 -0.19608875 C640.00745487 -0.19723644 658.56938752 -0.20823519 677.13133246 -0.22280681 C695.82346475 -0.23722571 714.51557346 -0.24037866 733.20770979 -0.23236683 C744.2917503 -0.22793456 755.37571429 -0.23167386 766.45974464 -0.24760534 C773.8913792 -0.25744321 781.32296088 -0.25609428 788.7545951 -0.24616911 C792.97132659 -0.24083934 797.18791255 -0.23986026 801.40463126 -0.25267783 C817.96204203 -0.29973741 834.3710631 0.04608699 850.87143993 1.50999379 C851.57120284 1.57148834 852.27096574 1.63298288 852.99193358 1.69634089 C874.16478175 3.60311115 894.17089559 8.83894949 914.41744518 15.1276505 C915.56213268 15.47569737 916.70682018 15.82374425 917.88619518 16.182338 C920.76068504 17.0947463 923.58691761 18.08653691 926.41744518 19.1276505 C927.41880505 19.49116612 927.41880505 19.49116612 928.4403944 19.8620255 C955.39503326 29.76349128 981.17401197 43.91300238 1003.41744518 62.1276505 C1003.97689831 62.58558995 1004.53635143 63.04352941 1005.11275768 63.51534581 C1010.98658025 68.34544542 1016.73192002 73.23509494 1022.01119518 78.7214005 C1023.52820791 80.29736054 1023.52820791 80.29736054 1025.91744518 82.0651505 C1028.79376592 84.43811511 1031.07649194 87.05770977 1033.48775768 89.8932755 C1034.76281479 91.36965741 1036.07019327 92.81879553 1037.40963268 94.2370255 C1063.60567161 122.0643196 1080.8094443 158.69334118 1089.10494518 195.6901505 C1089.31981579 196.63608068 1089.53468639 197.58201085 1089.75606823 198.55660558 C1095.53514603 225.29379438 1094.94665731 257.65303693 1088.41744518 284.1276505 C1088.20313854 285.01710362 1087.9888319 285.90655675 1087.76803112 286.822963 C1083.06878193 305.81148667 1075.73363519 323.94549214 1066.41744518 341.1276505 C1066.04925671 341.80892003 1065.68106823 342.49018956 1065.30172253 343.19210362 C1059.02616519 354.65435732 1051.64983055 364.99395842 1043.41744518 375.1276505 C1042.91454967 375.74768956 1042.41165417 376.36772862 1041.8935194 377.00655675 C1031.2899601 389.96451903 1019.67429666 401.87093514 1006.41744518 412.1276505 C1004.91117565 413.32454503 1004.91117565 413.32454503 1003.37447643 414.54561925 C977.05663834 435.33096014 947.03943547 450.53990335 915.29391003 461.16378331 C913.50387872 461.76360029 911.71705568 462.37319331 909.93551159 462.99776769 C898.4655361 467.01577304 886.80307539 469.32051545 874.85494518 471.3776505 C874.13212353 471.50280034 873.40930187 471.62795018 872.66457653 471.75689244 C867.59259864 472.62445434 862.51009035 473.39232893 857.41744518 474.1276505 C856.16030126 474.31071677 854.90315734 474.49378304 853.60791814 474.68239677 C838.00869878 476.71927744 822.30016113 476.41697254 806.60176429 476.39698833 C802.26513943 476.39369092 797.92853323 476.40202945 793.59191453 476.40880668 C786.0071397 476.41906689 778.42239038 476.42195744 770.83760929 476.41989446 C759.55921557 476.41683437 748.2808499 476.42519027 737.00246164 476.43564371 C715.68993268 476.45494683 694.37741337 476.46061039 673.06487669 476.46175782 C656.61514093 476.46267768 640.16540894 476.46679833 623.7156744 476.47315907 C618.97720572 476.47495416 614.23873703 476.4767338 609.50026834 476.47850883 C608.32225312 476.47895093 607.1442379 476.47939302 605.93052525 476.47984852 C572.81803481 476.49214851 539.70554568 476.50005041 506.59305286 476.49916196 C505.34571634 476.4991308 504.09837981 476.49909964 502.81324521 476.49906754 C496.49142659 476.49890133 490.16960798 476.49870325 483.84778936 476.49849813 C482.59227579 476.49845824 481.33676221 476.49841835 480.04320277 476.49837725 C477.50425848 476.49829637 474.96531418 476.49821278 472.42636989 476.49812646 C432.87552875 476.49689944 393.32472184 476.51194542 353.7738905 476.53927159 C309.33192273 476.56996454 264.88997745 476.58720605 220.4479984 476.58534515 C215.71393069 476.58519588 210.97986297 476.58509847 206.24579525 476.58503652 C205.08015372 476.58501321 203.91451218 476.5849899 202.71354818 476.58496588 C183.9301483 476.58490426 165.14677808 476.597692 146.36338703 476.61490105 C127.50915386 476.63181868 108.65496428 476.63386154 89.80072774 476.6206824 C78.59050617 476.61326961 67.38041671 476.61702069 56.17020903 476.63656708 C48.69208072 476.64850868 41.21404876 476.64604138 33.73592499 476.63162609 C29.46912233 476.62381404 25.20257652 476.62245098 20.93579133 476.63854079 C17.0584805 476.65303478 13.18164186 476.64930236 9.30435251 476.63069306 C7.90648836 476.62723488 6.50858781 476.63055761 5.11076063 476.64129547 C3.21879608 476.65486212 1.32669529 476.64150975 -0.56526029 476.62674582 C-2.13935738 476.62701048 -2.13935738 476.62701048 -3.74525442 476.6272805 C-7.31866849 475.99802571 -8.98676129 474.61210903 -11.58255482 472.1276505 C-13.92047356 468.04238767 -13.86794703 463.95670741 -13.84541035 459.36359143 C-13.84951561 458.58495587 -13.85362088 457.8063203 -13.85785055 457.00408971 C-13.86919272 454.38535205 -13.86627588 451.76682469 -13.86343861 449.14806676 C-13.86860574 447.2554545 -13.87463202 445.36284442 -13.88144541 443.47023737 C-13.89759346 438.26171505 -13.90116499 433.05324783 -13.90264034 427.84470344 C-13.90633997 422.23041133 -13.92143374 416.61614787 -13.93491077 411.0018723 C-13.96208241 398.72316832 -13.97412713 386.4444774 -13.98293209 374.16574836 C-13.98845511 366.50192702 -13.99692939 358.83811073 -14.00594044 351.1742928 C-14.03032456 329.96325588 -14.05099542 308.75222324 -14.05769062 287.54117322 C-14.05813389 286.16976208 -14.05857745 284.79835095 -14.05902132 283.42693981 C-14.0594626 282.0522202 -14.05990357 280.67750059 -14.06034422 279.30278099 C-14.06122932 276.54485988 -14.06212356 273.78693878 -14.06302357 271.02901769 C-14.06324235 270.34521464 -14.06346113 269.66141158 -14.06368654 268.95688723 C-14.07095031 246.77684018 -14.10280198 224.59692376 -14.14940429 202.41692674 C-14.19858353 178.96762149 -14.22602195 155.51841176 -14.22842646 132.06904471 C-14.23026176 119.28591148 -14.24181168 106.50294936 -14.27806568 93.71986318 C-14.30882034 82.83739917 -14.31913665 71.95515917 -14.30258948 61.07265998 C-14.29475996 55.51830835 -14.29671498 49.96440815 -14.32470417 44.41011167 C-14.35008438 39.32718506 -14.34787509 34.24505132 -14.32352275 29.16212659 C-14.31959161 27.32164473 -14.32584496 25.48110764 -14.34321147 23.64070351 C-14.48006774 8.15954089 -14.48006774 8.15954089 -10.66161823 3.55055356 C-6.61403585 0.36552668 -5.05081464 0.00250765 0 0 Z " fill="#FEFEFE" transform="translate(904.5825548171997,631.8723495006561)"/>
<!-- Removed white background path for transparent corners -->
<!-- Removed white corner path for transparent corners -->
<!-- Removed white corner path for transparent corners -->
</svg>
