<?xml version="1.0" encoding="UTF-8"?>
<svg version="1.1" xmlns="http://www.w3.org/2000/svg" width="3308" height="3405">
<path d="M0 0 C0.79548806 -0.00158509 1.59097613 -0.00317018 2.41056989 -0.0048033 C5.11196372 -0.00894084 7.81330336 -0.00587378 10.5146981 -0.00291733 C12.46793847 -0.00440992 14.42117855 -0.00634075 16.3744181 -0.0086726 C21.7976208 -0.01385182 27.2208074 -0.01272434 32.64401152 -0.01065899 C38.54495895 -0.00950339 44.44590222 -0.01412015 50.34684809 -0.01801572 C60.7475514 -0.02406837 71.14825151 -0.02638456 81.54895632 -0.02624258 C92.7748502 -0.02610736 104.00074059 -0.02813895 115.22663353 -0.03280079 C116.29222759 -0.03324104 116.29222759 -0.03324104 117.3793488 -0.03369019 C120.27567092 -0.03489399 123.17199303 -0.03611329 126.06831513 -0.0373522 C153.32920873 -0.04901072 180.59010154 -0.05567847 207.85099728 -0.05946223 C234.7540693 -0.06320595 261.65713958 -0.06907492 288.56021054 -0.07754008 C290.2736549 -0.07807671 291.98709926 -0.07861317 293.70054363 -0.07914945 C300.6088315 -0.08131465 307.51711937 -0.08349195 314.42540724 -0.08568339 C398.25004232 -0.1122379 482.07467838 -0.12775812 565.8993165 -0.14084628 C592.1065444 -0.1449415 618.31377224 -0.14932148 644.52100005 -0.15392058 C653.23577841 -0.15544937 661.95055676 -0.15697152 670.66533512 -0.15849224 C671.62509063 -0.15865972 672.58484613 -0.1588272 673.57368514 -0.15899976 C772.03561554 -0.17616882 870.49754634 -0.19191109 1071.10890554 -0.21335203 C1082.56648632 -0.21433605 1094.0240671 -0.21534045 1105.48164788 -0.21634771 C1107.0313405 -0.21648388 1107.0313405 -0.21648388 1108.61234005 -0.21662279 C1129.54511226 -0.21846269 1150.47788446 -0.22032296 1171.41065666 -0.22221211 C1176.65807101 -0.22268562 1181.90548535 -0.22315742 1187.15289969 -0.22362502 C1286.27193991 -0.23246163 1385.39097632 -0.24562141 1484.51001294 -0.27457682 C1485.55362026 -0.27488148 1486.59722759 -0.27518615 1487.67245938 -0.27550004 C1522.37805165 -0.28564286 1557.08364376 -0.29631395 1591.78923586 -0.30704014 C1623.14699131 -0.31673013 1654.50474679 -0.32629635 1685.86250241 -0.33543459 C1686.89259513 -0.33573496 1687.92268785 -0.33603533 1688.9839955 -0.33634481 C1753.47824923 -0.35512014 1817.97250195 -0.36786518 1882.46675809 -0.3743178 C1883.46259286 -0.37441818 1884.45842763 -0.37451856 1885.48443921 -0.37462198 C1929.21550506 -0.37902291 1972.94657091 -0.38211587 2016.67763695 -0.38374193 C2034.26986281 -0.38440031 2051.86208866 -0.38522844 2069.45431451 -0.38614073 C2072.37127202 -0.38629013 2075.28822954 -0.38643324 2078.20518705 -0.38657537 C2122.84536224 -0.38878776 2167.4855322 -0.39498047 2212.12570412 -0.41286675 C2213.57070425 -0.4134454 2213.57070425 -0.4134454 2215.0448963 -0.41403575 C2230.54232295 -0.42026441 2246.03974947 -0.42681516 2261.53717596 -0.43341134 C2305.51351321 -0.45212394 2349.48984446 -0.46839154 2393.46618636 -0.46681968 C2394.35783416 -0.46678889 2395.24948197 -0.4667581 2396.1681494 -0.46672638 C2415.61743937 -0.46600354 2435.06672894 -0.46389944 2454.51601862 -0.46044093 C2462.27203393 -0.45908325 2470.02804926 -0.45791057 2477.78406461 -0.45679728 C2479.0531676 -0.45660774 2479.0531676 -0.45660774 2480.34790903 -0.45641437 C2507.21686439 -0.45248992 2534.08578376 -0.46397866 2560.9547309 -0.48431824 C2587.39629051 -0.50427122 2613.83780332 -0.50915839 2640.2793664 -0.49187559 C2643.89574457 -0.48951423 2647.51212282 -0.48732813 2651.12850116 -0.48524725 C2652.19052446 -0.48462609 2652.19052446 -0.48462609 2653.27400277 -0.48399239 C2664.46480519 -0.47790471 2675.65552602 -0.48856869 2686.84631342 -0.5063056 C2697.77917766 -0.52329521 2708.71193473 -0.52229208 2719.64479831 -0.50294051 C2725.47183737 -0.49314132 2731.29858218 -0.49137778 2737.12560134 -0.51149371 C2742.40438506 -0.52957388 2747.68262671 -0.52497323 2752.9613856 -0.50168308 C2754.86225958 -0.49736238 2756.76317533 -0.50152951 2758.66400685 -0.51495058 C2761.23310807 -0.53189312 2763.80027904 -0.51827421 2766.36930406 -0.49679399 C2767.10713973 -0.50904685 2767.84497541 -0.52129972 2768.60516974 -0.53392388 C2774.27898183 -0.43448673 2776.59425343 1.24489547 2780.4349397 5.12703451 C2781.9900639 8.23728292 2781.57124336 11.53147791 2781.56102887 14.94511284 C2781.56251162 15.76802127 2781.56399438 16.5909297 2781.56552206 17.43877475 C2781.56931242 20.23370039 2781.56589546 23.02857275 2781.5625902 25.82349839 C2781.56383158 27.84420259 2781.56551144 29.86490656 2781.56759256 31.88561007 C2781.57207598 37.49644891 2781.57025165 43.10727141 2781.56749077 48.71811072 C2781.56557937 54.82310018 2781.56944328 60.92808634 2781.57258756 67.03307491 C2781.57731734 77.79351613 2781.57831428 88.55395133 2781.57685922 99.3143931 C2781.57530772 110.9286047 2781.57593347 122.54281316 2781.57920043 134.15702443 C2781.57950838 135.25946182 2781.57950838 135.25946182 2781.57982254 136.38417068 C2781.58088 140.13643542 2781.5819715 143.88870015 2781.58307399 147.64096487 C2781.59105982 175.08883991 2781.5940448 202.5367138 2781.59451993 229.9845899 C2781.59501399 257.81810634 2781.59765454 285.65162134 2781.60292752 313.48513731 C2781.60326106 315.25782894 2781.60359453 317.03052058 2781.60392793 318.80321221 C2781.60527599 325.95036952 2781.60663929 333.09752683 2781.60802003 340.24468413 C2781.62319589 418.91100127 2781.62996424 497.57731804 2781.634442 576.24363641 C2781.63449869 577.23897684 2781.63455538 578.23431727 2781.63461378 579.25981954 C2781.6349003 584.29436685 2781.63518533 589.32891417 2781.6354679 594.36346149 C2781.6378419 636.52290497 2781.64155134 678.68234829 2781.645505 720.84179165 C2781.64739753 741.02409603 2781.64922602 761.20640041 2781.6510392 781.3887048 C2781.65112939 782.39242031 2781.65121958 783.39613582 2781.6513125 784.43026695 C2781.65564889 832.73938224 2781.65957719 881.04849756 2781.66303952 929.35761293 C2781.66311339 930.38816427 2781.66318727 931.4187156 2781.66326338 932.48049577 C2781.66795898 998.1657536 2781.67078162 1063.85101138 2781.6724263 1129.53626935 C2781.67256188 1134.92247165 2781.67270091 1140.30867395 2781.67283984 1145.69487625 C2781.67306232 1154.33041258 2781.67328369 1162.96594891 2781.67350372 1171.60148525 C2781.67353099 1172.67158731 2781.67355826 1173.74168937 2781.67358636 1174.84421876 C2781.67364147 1177.00698918 2781.67369658 1179.16975961 2781.67375169 1181.33253003 C2781.67413831 1196.50402221 2781.67452625 1211.67551439 2781.67492082 1226.84700657 C2781.67506193 1232.27572095 2781.675202 1237.70443533 2781.67533972 1243.13314971 C2781.67794432 1345.67837374 2781.68327701 1448.22359625 2781.69922192 1550.76881918 C2781.69938972 1551.84852402 2781.69955751 1552.92822887 2781.69973039 1554.04065205 C2781.70498112 1587.77558231 2781.71055546 1621.51051251 2781.7161897 1655.24544271 C2781.7219705 1689.85902562 2781.72770097 1724.47260853 2781.73314603 1759.0861915 C2781.73339774 1760.68477276 2781.73339774 1760.68477276 2781.73365453 1762.31564859 C2781.74414437 1829.0391245 2781.75100838 1895.7626 2781.75401242 1962.48607668 C2781.75405923 1963.51630991 2781.75410604 1964.54654314 2781.75415427 1965.60799556 C2781.75620474 2010.84931956 2781.75744898 2056.09064354 2781.75780033 2101.33196758 C2781.7579436 2119.5316516 2781.75818227 2137.73133561 2781.75846439 2155.93101963 C2781.75850992 2158.94870349 2781.75855157 2161.96638735 2781.7585925 2164.98407121 C2781.75923894 2211.16738171 2781.76220365 2257.35069047 2781.77205308 2303.534 C2781.77237163 2305.02902546 2781.77237163 2305.02902546 2781.77269663 2306.55425345 C2781.77612562 2322.58826286 2781.77973853 2338.62227223 2781.78337303 2354.65628159 C2781.79368108 2400.1535701 2781.8024695 2445.65085648 2781.80052836 2491.14814635 C2781.80047025 2492.53178337 2781.80047025 2492.53178337 2781.80041097 2493.94337265 C2781.79953458 2514.06365281 2781.79782282 2534.18393281 2781.79529135 2554.30421284 C2781.79429454 2562.32771806 2781.79340791 2570.35122329 2781.79255612 2578.37472852 C2781.79246023 2579.24997801 2781.79236435 2580.1252275 2781.79226555 2581.0269997 C2781.78927247 2608.82587197 2781.79552225 2636.62473193 2781.80707499 2664.42360167 C2781.818405 2691.77869498 2781.8206947 2719.13377179 2781.80966948 2746.48886578 C2781.80816319 2750.22957251 2781.80676193 2753.97027927 2781.80542366 2757.71098606 C2781.80515762 2758.44334715 2781.80489157 2759.17570824 2781.80461746 2759.93026209 C2781.80068558 2771.50922267 2781.80680648 2783.08815513 2781.81716352 2794.66711083 C2781.8270769 2805.97716576 2781.82620607 2817.28716707 2781.81431257 2828.59722426 C2781.80828175 2834.626072 2781.80708608 2840.65481745 2781.81899743 2846.68365872 C2781.82969929 2852.14378663 2781.82682609 2857.60372541 2781.81270476 2863.063844 C2781.81006071 2865.03141792 2781.81252346 2866.99900646 2781.82051801 2868.96656591 C2781.83059398 2871.6224532 2781.82239584 2874.27766487 2781.80942586 2876.93352468 C2781.81675815 2877.69979429 2781.82409043 2878.4660639 2781.8316449 2879.2555538 C2781.78595334 2883.72166797 2781.36328283 2886.68657616 2778.4349397 2890.12703451 C2773.85803524 2893.17751505 2769.73869352 2893.55520492 2764.38219013 2893.50293868 C2763.5825766 2893.5071311 2762.78296308 2893.51132353 2761.95911884 2893.515643 C2759.26763418 2893.52607029 2756.57666314 2893.51505965 2753.88518609 2893.50423267 C2751.92971092 2893.50733163 2749.97423747 2893.51174587 2748.0187679 2893.51735746 C2742.60797979 2893.52902799 2737.19735109 2893.52187398 2731.78656567 2893.51183169 C2725.89219758 2893.50418878 2719.99785445 2893.51392526 2714.1034898 2893.52147221 C2703.72061065 2893.53234 2693.3377681 2893.53205565 2682.95488843 2893.52439918 C2671.75115328 2893.51619695 2660.54744544 2893.5145725 2649.34370876 2893.52088031 C2648.27927532 2893.52147337 2648.27927532 2893.52147337 2647.19333818 2893.52207841 C2643.57027114 2893.52412588 2639.94720417 2893.52627722 2636.32413721 2893.52846317 C2609.83776074 2893.54421282 2583.35139954 2893.54507991 2556.86502011 2893.53848394 C2530.01038855 2893.53183967 2503.15576865 2893.53169574 2476.30113728 2893.53953107 C2475.45492323 2893.53977484 2474.60870918 2893.5400186 2473.73685228 2893.54026976 C2465.98210209 2893.54250408 2458.22735193 2893.54480356 2450.47260179 2893.5471816 C2431.02472899 2893.55313612 2411.576856 2893.55802719 2392.12898274 2893.56219431 C2390.79206016 2893.56248134 2390.79206016 2893.56248134 2389.42812904 2893.56277417 C2345.46549992 2893.57210923 2301.50287219 2893.56992556 2257.54024251 2893.56648573 C2256.11049143 2893.56637404 2256.11049143 2893.56637404 2254.65185649 2893.5662601 C2250.79297722 2893.56595827 2246.93409795 2893.56565558 2243.07521868 2893.56535217 C2232.4161719 2893.56451536 2221.75712511 2893.56370943 2211.09807833 2893.56294259 C2209.65460262 2893.56283777 2209.65460262 2893.56283777 2208.18196578 2893.56273084 C2163.61754279 2893.55952697 2119.053121 2893.56266685 2074.4886982 2893.56713038 C2069.62927875 2893.56761422 2064.76985931 2893.56808423 2059.91043987 2893.56855451 C2052.11099428 2893.56931044 2044.31154869 2893.57006868 2036.51210311 2893.57083143 C2035.06138549 2893.57097326 2035.06138549 2893.57097326 2033.58136044 2893.57111795 C2028.69070893 2893.57159666 2023.80005742 2893.5720781 2018.90940591 2893.57256406 C1973.26522222 2893.57709872 1927.62103849 2893.58059699 1881.97685464 2893.58306726 C1880.98229241 2893.58312137 1879.98773018 2893.58317548 1878.9630297 2893.58323122 C1814.53740908 2893.58671444 1750.11178951 2893.58535663 1685.68616898 2893.58067735 C1683.60757437 2893.58052746 1681.52897976 2893.58037766 1679.45038515 2893.58022794 C1656.5023884 2893.57857131 1633.55439165 2893.57681966 1610.60639491 2893.57503493 C1609.57052642 2893.57495443 1608.53465792 2893.57487393 1607.46739947 2893.57479099 C1604.32709091 2893.57454693 1601.18678235 2893.57430274 1598.04647378 2893.57405848 C1596.49140708 2893.57393753 1596.49140708 2893.57393753 1594.90492489 2893.57381414 C1589.66665298 2893.57340645 1584.42838108 2893.57299736 1579.19010918 2893.57258579 C1474.97965678 2893.56440614 1370.76921026 2893.562536 1184.66629116 2893.5930271 C1150.21674545 2893.59916623 1115.76719974 2893.60524856 1081.31765397 2893.61099657 C1079.77502315 2893.61125459 1079.77502315 2893.61125459 1078.20122807 2893.61151783 C1013.81075792 2893.622275 949.42028894 2893.62816343 885.02981789 2893.62855371 C883.53845538 2893.62856348 883.53845538 2893.62856348 882.01696434 2893.62857345 C837.37642821 2893.62885494 792.73589219 2893.62786399 748.09535612 2893.62568339 C732.48263277 2893.62492388 716.86990942 2893.62424992 701.25718607 2893.62360324 C697.37294435 2893.62344201 693.48870263 2893.6232739 689.60446091 2893.62310022 C645.0383483 2893.62112467 600.47223837 2893.6219455 555.90612657 2893.63140496 C554.94445674 2893.63160857 553.98278692 2893.63181219 552.99197558 2893.63202198 C537.52145924 2893.6353097 522.05094295 2893.63880383 506.58042666 2893.64230321 C462.67969001 2893.65221845 418.77895749 2893.65988225 374.8782198 2893.65313669 C373.98806082 2893.6530006 373.09790185 2893.65286452 372.18076836 2893.6527243 C352.76374457 2893.64971114 333.34672119 2893.64555654 313.92969788 2893.64027998 C306.18651301 2893.63819177 298.4433281 2893.63624698 290.70014317 2893.63434538 C289.8554765 2893.63413389 289.01080983 2893.63392241 288.14054719 2893.63370452 C261.3188799 2893.62705625 234.49723404 2893.63269845 207.67556944 2893.64539674 C181.27933647 2893.65784058 154.8831352 2893.65819161 128.48690402 2893.64077307 C124.87622169 2893.63839197 121.26553928 2893.63615026 117.65485681 2893.63399193 C116.59451245 2893.63334994 116.59451245 2893.63334994 115.512747 2893.63269498 C104.34249807 2893.6262965 93.17229953 2893.63327913 82.0020576 2893.64591524 C71.08761216 2893.65799001 60.17323744 2893.655652 49.25879648 2893.63864775 C43.44231608 2893.62999648 37.62602327 2893.62775389 31.80955229 2893.64303147 C26.53918765 2893.65675932 21.26917274 2893.65230811 15.99882862 2893.63294837 C14.10209687 2893.62922693 12.20533735 2893.63227712 10.30863088 2893.6427525 C7.74293564 2893.65596207 5.17847576 2893.64465963 2.6128331 2893.62713717 C1.8787343 2893.63683257 1.1446355 2893.64652798 0.38829128 2893.65651718 C-5.10206988 2893.57891787 -8.18901498 2892.24511141 -12.5650603 2889.12703451 C-15.38556351 2885.66368637 -14.84276796 2881.33220303 -14.81676598 2877.06008652 C-14.81968032 2876.23457075 -14.82259466 2875.40905498 -14.82559731 2874.55852358 C-14.8329791 2871.76671817 -14.82600713 2868.97512869 -14.81921063 2866.1833243 C-14.82156881 2864.16016273 -14.8248037 2862.13700202 -14.8288389 2860.11384311 C-14.83744387 2854.50549182 -14.83346652 2848.89720686 -14.82759125 2843.2888546 C-14.82338554 2837.18310015 -14.83074476 2831.07735815 -14.83665486 2824.97160663 C-14.84544752 2814.21292618 -14.84678912 2803.45427024 -14.84322057 2792.69558833 C-14.83940788 2781.08473258 -14.83996055 2769.47388912 -14.84579449 2757.86303408 C-14.84616098 2757.12797394 -14.84652747 2756.39291381 -14.84690507 2755.63557913 C-14.84879501 2751.88271922 -14.85075338 2748.12985934 -14.85273405 2744.37699947 C-14.86706184 2716.93284117 -14.87141602 2689.48868807 -14.87076251 2662.04452642 C-14.87012571 2634.21668521 -14.87379436 2606.38884956 -14.88274257 2578.56100973 C-14.8833081 2576.78836162 -14.88387354 2575.01571352 -14.88443889 2573.24306541 C-14.88672647 2566.09602883 -14.88904606 2558.94899226 -14.89140219 2551.80195569 C-14.89803502 2531.65298419 -14.903917 2511.50401251 -14.90927772 2491.35504063 C-14.90952347 2490.43160362 -14.90976922 2489.50816661 -14.91002241 2488.55674667 C-14.92418384 2434.99954437 -14.92744566 2381.44234113 -14.93092934 2327.8851373 C-14.93138733 2320.85244415 -14.93184641 2313.81975101 -14.93230832 2306.78705786 C-14.93244015 2304.77312949 -14.9325712 2302.75920112 -14.93270145 2300.74527275 C-14.93555974 2256.5794899 -14.94150057 2212.41370771 -14.94814989 2168.24792529 C-14.95103485 2149.07123606 -14.95381257 2129.89454681 -14.95658897 2110.71785756 C-14.95673444 2109.71420606 -14.9568799 2108.71055457 -14.95702978 2107.67648939 C-14.96402721 2059.3709363 -14.97025464 2011.06538314 -14.97560661 1962.75982984 C-14.97572085 1961.72936527 -14.97583509 1960.69890071 -14.9759528 1959.63720994 C-14.98321185 1893.95975776 -14.98693343 1828.28230586 -14.98831539 1762.60485331 C-14.9884297 1757.21948015 -14.98854972 1751.83410699 -14.98866897 1746.44873384 C-14.98907369 1728.07663253 -14.98945715 1709.70453122 -14.98983959 1691.33242992 C-14.99002037 1682.65812975 -14.99020414 1673.98382959 -14.9903898 1665.30952943 C-14.99050582 1659.88169547 -14.9906201 1654.45386151 -14.99073059 1649.02602755 C-14.99282373 1546.49646169 -14.99957579 1443.9669003 -15.0249602 1341.43733724 C-15.02522736 1340.35777585 -15.02549451 1339.27821446 -15.02576976 1338.16593909 C-15.03413186 1304.43536011 -15.04307268 1270.70478128 -15.05212085 1236.97420248 C-15.06140299 1202.36492989 -15.07060388 1167.75565729 -15.07934158 1133.14638456 C-15.07961091 1132.08079207 -15.07988024 1131.01519959 -15.08015774 1129.91731642 C-15.09699513 1063.20081967 -15.1077823 996.48432419 -15.11206596 929.76782545 C-15.11213279 928.73768608 -15.11219963 927.70754671 -15.1122685 926.646191 C-15.11519422 881.4088225 -15.11675833 836.17145405 -15.11682367 790.93408546 C-15.11685266 772.73598262 -15.11703526 754.53787978 -15.1172844 736.33977693 C-15.11732354 733.32236528 -15.11735611 730.30495362 -15.11738737 727.28754196 C-15.11789723 681.11022555 -15.12221143 634.93291382 -15.13789313 588.75559982 C-15.13823117 587.75909834 -15.13856921 586.76259685 -15.1389175 585.73589836 C-15.14437561 569.70492035 -15.15013251 553.67394246 -15.15592071 537.64296457 C-15.17233535 492.15320044 -15.18617152 446.66344225 -15.18210487 401.17367467 C-15.18202342 400.25135529 -15.18194197 399.32903591 -15.18185805 398.37876746 C-15.18002846 378.26054005 -15.17680106 358.14231311 -15.17220171 338.02408615 C-15.17038853 330.0013446 -15.16875829 321.97860301 -15.16718547 313.95586141 C-15.16692066 312.64311487 -15.16692066 312.64311487 -15.1666505 311.30384819 C-15.16113077 283.51037127 -15.17100762 255.71692825 -15.18972216 227.92345786 C-15.20807455 200.57241516 -15.21134714 173.22141863 -15.19242971 145.87037477 C-15.1898447 142.12971904 -15.18743459 138.38906321 -15.18512934 134.64840729 C-15.18467127 133.91606009 -15.18421321 133.18371289 -15.18374127 132.42917336 C-15.17695785 120.85322446 -15.18692067 109.27735337 -15.2039498 97.70141756 C-15.220247 86.39263265 -15.21855279 75.08399701 -15.19850497 63.77520652 C-15.18833411 57.74768443 -15.18620159 51.72044625 -15.20594052 45.69294155 C-15.22367808 40.23278658 -15.21874542 34.7731571 -15.19511416 29.31302873 C-15.19067067 27.34660954 -15.19471841 25.38014947 -15.20801354 23.4137702 C-15.22478292 20.75662166 -15.21101065 18.10134246 -15.18936146 15.44427016 C-15.20156574 14.68055802 -15.21377002 13.91684587 -15.22634413 13.12999094 C-15.12826318 7.36597152 -13.52289561 5.01858645 -9.5650603 1.12703451 C-6.5167861 -0.39710259 -3.34406557 -0.00991994 0 0 Z " fill="#000000" transform="translate(270.56506030261517,255.87296549230814)"/>
<path d="M0 0 C0.85344774 -0.0030531 1.70689549 -0.00610619 2.58620529 -0.00925181 C5.47122925 -0.01709997 8.35604657 -0.01060042 11.24107182 -0.00426924 C13.32921652 -0.00696032 15.41736024 -0.01052683 17.5055021 -0.01489371 C23.28488696 -0.02440028 29.06420919 -0.0213354 34.84359722 -0.01633817 C41.11593083 -0.0130853 47.38825064 -0.02134262 53.66057992 -0.02815652 C64.66801601 -0.03848934 75.67543103 -0.04136399 86.68287098 -0.03924429 C98.49804103 -0.0369977 110.31319847 -0.03905551 122.12836659 -0.04638922 C123.24661324 -0.04707818 123.24661324 -0.04707818 124.38745073 -0.04778106 C127.42366244 -0.04966429 130.45987412 -0.05157566 133.49608579 -0.05352344 C165.20051617 -0.07383246 196.9049395 -0.07993627 228.60937564 -0.08110766 C232.02451419 -0.08123716 235.43965274 -0.08137303 238.85479128 -0.08151448 C239.70226996 -0.08154849 240.54974864 -0.0815825 241.42290849 -0.08161754 C260.19635057 -0.08243417 278.9697913 -0.08681325 297.74323266 -0.09182617 C305.47210377 -0.09388293 313.20097491 -0.09586297 320.92984605 -0.09785867 C321.78383076 -0.09807985 322.63781547 -0.09830102 323.5176785 -0.09852891 C372.47416171 -0.11118194 421.43064403 -0.1194267 470.38712895 -0.1185118 C472.22010766 -0.11848024 474.05308636 -0.11844877 475.88606507 -0.11841738 C484.16185697 -0.11827061 492.43764887 -0.11809427 500.71344077 -0.11790961 C504.40382574 -0.11782736 508.09421071 -0.11774707 511.78459568 -0.11766698 C513.63170484 -0.11762619 515.478814 -0.11758415 517.32592316 -0.11754086 C575.68254317 -0.11618156 634.03913887 -0.13079232 692.39575207 -0.15862143 C707.08739158 -0.16562377 721.77903112 -0.17256283 736.47067082 -0.17915022 C737.37535434 -0.17955597 738.28003785 -0.17996172 739.21213602 -0.18037976 C767.11385184 -0.19281785 795.01556566 -0.20034253 822.91728413 -0.2028662 C823.79386019 -0.2029461 824.67043625 -0.203026 825.57357522 -0.20310832 C844.82095193 -0.20481525 864.06832852 -0.20533714 883.31570529 -0.20476757 C890.20390641 -0.20457461 897.09210753 -0.20447052 903.98030865 -0.20441011 C905.69387601 -0.20439428 907.40744337 -0.20437387 909.12101073 -0.20434886 C936.38657408 -0.20399672 963.65211659 -0.21537256 990.91767397 -0.2326565 C1018.40336934 -0.24999122 1045.88903592 -0.25430947 1073.37473447 -0.24113385 C1077.18166895 -0.23930951 1080.98860348 -0.23762289 1084.79553807 -0.23601782 C1085.54173657 -0.23569765 1086.28793508 -0.23537747 1087.05674566 -0.2350476 C1098.82396996 -0.23036012 1110.59114412 -0.23901367 1122.358359 -0.2533602 C1133.95830104 -0.26721894 1145.55815436 -0.26623381 1157.15809675 -0.25097592 C1163.35139925 -0.24323571 1169.54452572 -0.24159511 1175.7378156 -0.25789063 C1200.34872271 -0.31846598 1224.39392036 -0.23344821 1248.67016613 4.25299966 C1249.54692116 4.4129622 1250.42367618 4.57292474 1251.32699953 4.73773463 C1256.50699065 5.70263186 1261.58307776 6.87985993 1266.67016613 8.25299966 C1267.65484875 8.51564615 1268.63953137 8.77829263 1269.65405285 9.0488981 C1306.29160333 18.97465268 1341.17191421 35.10083195 1370.67016613 59.25299966 C1371.46148938 59.90002847 1371.46148938 59.90002847 1372.26879895 60.56012857 C1391.02825706 75.97169298 1407.80714146 92.66230458 1422.20336926 112.26423013 C1423.53375255 114.0680421 1424.88633347 115.85190586 1426.24829113 117.63190591 C1460.26275457 162.77615183 1476.16594148 220.17400683 1475.93090832 276.09381998 C1475.92009859 279.14707823 1475.93093054 282.19975797 1475.94360363 285.25299966 C1475.95199916 296.1118207 1475.51112339 306.53034334 1473.67016613 317.25299966 C1473.50919446 318.27651529 1473.34822278 319.30003091 1473.18237317 320.35456216 C1468.91340729 346.73359 1461.33110699 372.19780542 1449.67016613 396.25299966 C1448.98398205 397.67684976 1448.98398205 397.67684976 1448.28393567 399.12946451 C1436.74311904 422.79348707 1422.16109806 444.40044451 1404.14282238 463.59284341 C1402.14094716 465.7465196 1400.23828905 467.9328095 1398.35766613 470.19049966 C1389.08763024 480.82896943 1377.9545547 489.85187303 1366.67016613 498.25299966 C1366.03272473 498.73091959 1365.39528332 499.20883951 1364.73852551 499.70124185 C1321.02842911 532.23716738 1263.73278487 554.52457202 1208.69813579 554.38180083 C1207.40494786 554.38446334 1207.40494786 554.38446334 1206.08563492 554.38717965 C1203.20127366 554.39190475 1200.31696273 554.38955026 1197.43259919 554.38722074 C1195.33307031 554.38917466 1193.2335418 554.39156388 1191.13401386 554.39434871 C1185.34650911 554.40074674 1179.55901824 554.40091049 1173.77151062 554.4000713 C1167.48202436 554.40024084 1161.19254308 554.40614732 1154.9030593 554.41131216 C1143.87397611 554.41955406 1132.84489718 554.4240623 1121.81581128 554.42603815 C1109.98180156 554.42816749 1098.14779554 554.43242948 1086.31378758 554.43928087 C1085.56634476 554.43971148 1084.81890195 554.4401421 1084.04880935 554.44058576 C1081.00459872 554.44234412 1077.96038809 554.44411377 1074.91617748 554.44589878 C1038.02671014 554.46748727 1001.13724208 554.47837453 964.24776986 554.48737502 C952.28848411 554.49030918 940.32919853 554.49367908 928.36991298 554.49734223 C927.52617131 554.49760052 926.68242963 554.49785881 925.81312003 554.49812493 C922.39962164 554.49917116 918.98612326 554.50021958 915.57262487 554.50127075 C857.19424336 554.51923216 798.81586155 554.53461262 740.43747767 554.54202978 C735.85306788 554.54261376 731.26865809 554.54321102 726.68424831 554.5438074 C725.77484561 554.54392552 724.86544291 554.54404364 723.92848256 554.54416534 C714.71492097 554.54536273 705.50135939 554.54657149 696.2877978 554.54779787 C694.44044917 554.5480431 692.59310053 554.54828696 690.7457519 554.54852944 C631.38406908 554.55632333 572.02240601 554.57871798 512.66073182 554.61120587 C470.00281164 554.63454415 427.34489538 554.65609938 384.68696892 554.66321218 C383.81015955 554.6633592 382.93335018 554.66350622 382.02997083 554.6636577 C362.78432983 554.66684211 343.53868888 554.66889329 324.29304766 554.66988525 C316.55007285 554.6703 308.80709806 554.67085489 301.06412327 554.67144716 C299.79298412 554.67153816 299.79298412 554.67153816 298.49616539 554.671631 C271.17658297 554.67364862 243.85702385 554.68789872 216.53744956 554.70839216 C189.03290185 554.72895132 161.5283811 554.73687844 134.02382648 554.7273144 C130.22666486 554.72599587 126.4295032 554.72481785 122.6323415 554.72372377 C121.51578351 554.723394 121.51578351 554.723394 120.37666879 554.72305756 C108.57120246 554.7199384 96.76578755 554.73028845 84.96033314 554.74619932 C73.36334946 554.76155169 61.76646145 554.76239771 50.16947072 554.74865108 C43.96123996 554.74170817 37.75318694 554.74124156 31.54497156 554.75821117 C25.90478292 554.77350344 20.26491652 554.77061359 14.62473794 554.75280089 C12.58979505 554.74963352 10.55482818 554.75326844 8.51991269 554.76429264 C5.76826046 554.77823664 3.01775995 554.76773964 0.26614898 554.75094432 C-0.52597906 554.76086169 -1.3181071 554.77077906 -2.13423902 554.78099696 C-7.30573989 554.71401346 -10.19638652 553.61914934 -14.32983387 550.25299966 C-17.27396554 546.58290958 -16.60873372 541.84463247 -16.58710277 537.35701215 C-16.59060885 536.44386134 -16.59411492 535.53071053 -16.59772724 534.58988848 C-16.60708543 531.50756692 -16.60210655 528.42543246 -16.5972594 525.34310281 C-16.60099343 523.11994508 -16.60559395 520.89678867 -16.61099005 518.67363435 C-16.62326592 512.54686158 -16.6229542 506.42014322 -16.6206013 500.29336095 C-16.62023606 494.37005061 -16.62920699 488.44675924 -16.63782707 482.52345625 C-16.65718706 468.90820721 -16.66279602 455.29297321 -16.66394119 441.67771203 C-16.66485957 431.16583261 -16.66897254 420.65395911 -16.67534244 410.14208162 C-16.67713747 407.11846593 -16.67891709 404.09485023 -16.6806922 401.07123452 C-16.68113429 400.31960122 -16.68157639 399.56796793 -16.68203188 398.79355786 C-16.6943432 377.64667752 -16.7022327 356.49979924 -16.70134532 335.35291517 C-16.70131417 334.55534364 -16.70128301 333.75777212 -16.70125091 332.93603176 C-16.70108469 328.89341482 -16.7008866 324.85079788 -16.70068149 320.80818094 C-16.7006416 320.0052718 -16.70060171 319.20236267 -16.70056061 318.37512295 C-16.70047974 316.75144505 -16.70039614 315.12776715 -16.70030983 313.50408925 C-16.69908395 288.23474146 -16.71410304 262.96544733 -16.74145496 237.6961149 C-16.77215627 209.32057861 -16.78938867 180.94507758 -16.78752851 152.56952363 C-16.78737925 149.54559358 -16.78728184 146.52166353 -16.78721988 143.49773347 C-16.78719657 142.75313848 -16.78717326 142.00854349 -16.78714925 141.24138501 C-16.78708763 129.2440055 -16.79987484 117.24667245 -16.81708441 105.24930676 C-16.83401352 93.19849563 -16.83603612 81.14775271 -16.82286577 69.09693629 C-16.81611216 62.56475536 -16.81630563 56.03270955 -16.83357227 49.50054109 C-16.84920158 43.52655308 -16.84654377 37.55286937 -16.829004 31.57888924 C-16.82591165 29.41204188 -16.82964964 27.24517236 -16.84072416 25.07835109 C-16.85473656 22.14346957 -16.84434467 19.20967162 -16.8276118 16.27482831 C-16.83754816 15.42436458 -16.84748452 14.57390085 -16.85772198 13.69766548 C-16.81022294 9.78429546 -16.61840127 7.7291409 -14.54872274 4.31413537 C-9.99119786 0.08063032 -6.05801378 -0.03462106 0 0 Z " fill="#FEFEFE" transform="translate(856.3298338651657,1802.747000336647)"/>
<path d="M0 0 C1.21852985 -0.00551949 2.43705969 -0.01103897 3.69251469 -0.01672572 C5.04937547 -0.01274978 6.40623572 -0.00859084 7.76309544 -0.00426924 C9.20689155 -0.00696131 10.65068625 -0.01052838 12.09447828 -0.01489371 C16.08480584 -0.02438712 20.07504254 -0.02133962 24.06537468 -0.01633817 C28.39831786 -0.0130819 32.73124119 -0.02134552 37.06417811 -0.02815652 C44.66646509 -0.03848398 52.2687266 -0.04129556 59.8710199 -0.03924429 C71.17697825 -0.03620115 82.48290828 -0.04450341 93.78886113 -0.05499355 C115.16066489 -0.07436798 136.53245908 -0.0799632 157.90427058 -0.08110766 C174.41804144 -0.08202618 190.93180853 -0.08613994 207.44557816 -0.09250891 C212.19660401 -0.09430401 216.94762987 -0.09608363 221.69865572 -0.09785867 C223.47033461 -0.09852181 223.47033461 -0.09852181 225.277805 -0.09919835 C258.52063552 -0.11151404 291.76346474 -0.11939882 325.00629765 -0.1185118 C326.26055061 -0.11848064 327.51480357 -0.11844948 328.80706419 -0.11841738 C335.16426032 -0.11825116 341.52145644 -0.11805308 347.87865257 -0.11784796 C349.77251011 -0.11778813 349.77251011 -0.11778813 351.7046274 -0.11772708 C354.25786462 -0.11764621 356.81110183 -0.11756261 359.36433905 -0.1174763 C399.04051117 -0.11625227 438.71664904 -0.13123371 478.39281136 -0.15862143 C522.96784417 -0.18937803 567.54285449 -0.20655152 612.11789858 -0.20469499 C616.87678331 -0.20454573 621.63566804 -0.20444831 626.39455277 -0.20438635 C627.56630626 -0.20436304 628.73805975 -0.20433974 629.94532092 -0.20431572 C648.76664789 -0.20425429 667.58794505 -0.21700326 686.40926316 -0.23425088 C705.35199813 -0.25124968 724.29468973 -0.25314832 743.23742812 -0.24003224 C754.47585327 -0.23266928 765.71414624 -0.23622098 776.95255724 -0.25591692 C784.48064949 -0.26798919 792.00864685 -0.26524607 799.5367349 -0.25097592 C803.8126539 -0.24327308 808.08831874 -0.2414839 812.364219 -0.25789063 C837.52787007 -0.34819552 862.12912955 1.14780247 886.65526253 7.37799966 C887.83104866 7.67093912 889.0068348 7.96387857 890.21825081 8.26569498 C931.64828433 18.97760086 970.08359575 38.7956522 1002.09276253 67.25299966 C1002.97871102 68.01302286 1002.97871102 68.01302286 1003.88255745 68.78840005 C1017.64046952 80.62676317 1030.36748279 93.60606152 1041.09276253 108.25299966 C1041.83010628 109.19530435 1042.56745003 110.13760904 1043.32713753 111.10846841 C1086.20019891 166.22011646 1104.82396173 239.0125255 1096.90526253 308.06549966 C1096.376827 312.14195667 1095.76136072 316.19731987 1095.09276253 320.25299966 C1094.84332894 321.7870646 1094.84332894 321.7870646 1094.58885628 323.35212076 C1086.96277806 368.63549075 1068.05584411 412.49491891 1039.09276253 448.25299966 C1038.39022347 449.14760904 1037.6876844 450.04221841 1036.96385628 450.96393716 C1012.80540502 481.30659603 982.47098856 505.43438445 948.09276253 523.25299966 C947.35509651 523.63552896 946.6174305 524.01805826 945.85741097 524.41217935 C910.89689208 542.28088901 870.8881008 553.43323224 831.55463368 553.38722074 C830.08976112 553.38917678 828.6248891 553.3915668 827.16001788 553.39434871 C823.13932783 553.4007201 819.11865785 553.40091264 815.09796372 553.4000713 C810.7220119 553.40024136 806.34606714 553.40615371 801.97011888 553.41131216 C793.29351838 553.4206235 784.61692298 553.42455771 775.9403181 553.42683113 C765.54716622 553.42979682 755.15402108 553.43849609 744.76087275 553.44724541 C719.64874365 553.46807056 694.53661339 553.47855464 669.42447768 553.48737502 C657.54911897 553.49158231 645.67376076 553.49680403 633.79840248 553.50205955 C593.15838324 553.51994369 552.51836385 553.53494238 511.87834126 553.54237974 C509.32807522 553.54285449 506.77780918 553.54333038 504.22754313 553.5438074 C502.96283935 553.54404377 501.69813558 553.54428015 500.39510744 553.54452369 C493.98744103 553.5457249 487.57977463 553.54694034 481.17210823 553.54816568 C479.26468099 553.5485259 479.26468099 553.5485259 477.31871987 553.54889341 C436.04844208 553.55679419 394.77819295 553.58024517 353.50792768 553.61272162 C309.88582155 553.64698627 266.26373222 553.66672749 222.64161241 553.67002398 C217.85741338 553.67044153 213.07321437 553.6709211 208.28901535 553.67144716 C206.52197749 553.67163195 206.52197749 553.67163195 204.71924189 553.67182047 C185.73171172 553.67415606 166.74421479 553.68983533 147.75669647 553.710289 C128.69188904 553.73050108 109.6271217 553.73604615 90.56230553 553.72651837 C79.22548626 553.72128627 67.8888001 553.72726135 56.55199987 553.74905304 C48.98917056 553.76249664 41.42643353 553.76154157 33.86360343 553.74865108 C29.54826178 553.74171151 25.23317578 553.74123007 20.9178563 553.75821117 C16.99639734 553.77351753 13.07540157 553.77059894 9.15395699 553.75280089 C7.74008701 553.74963677 6.32618244 553.75325695 4.91235199 553.76429264 C2.99885025 553.7782621 1.0852081 553.76531118 -0.8282907 553.75094432 C-1.88968518 553.7513445 -2.95107966 553.75174468 -4.04463761 553.75215699 C-8.19120759 553.0291112 -10.68025033 550.85828619 -13.20365816 547.55687213 C-14.3252219 543.88430845 -14.18291682 540.19487395 -14.16450638 536.39104021 C-14.16801245 535.48156574 -14.17151852 534.57209127 -14.17513084 533.63505697 C-14.18448882 530.56523128 -14.17951021 527.49559348 -14.17466301 524.42575967 C-14.17839705 522.21156423 -14.18299758 519.99737011 -14.18839365 517.78317809 C-14.20066942 511.68113902 -14.20035781 505.57915459 -14.1980049 499.47710598 C-14.19763966 493.57764157 -14.20661067 487.6781962 -14.21523068 481.77873917 C-14.23459089 468.21801209 -14.24019965 454.65730012 -14.24134479 441.09656085 C-14.24226321 430.62616599 -14.24637636 420.15577708 -14.25274605 409.68538415 C-14.25454108 406.6735797 -14.25632071 403.66177524 -14.2580958 400.64997077 C-14.2585379 399.90126905 -14.25897999 399.15256732 -14.25943549 398.38117767 C-14.27174696 377.31646241 -14.2796363 356.25174921 -14.27874893 335.1870302 C-14.27871777 334.39254961 -14.27868661 333.59806903 -14.27865451 332.77951327 C-14.27848829 328.75257739 -14.27829021 324.72564151 -14.2780851 320.69870563 C-14.27804521 319.89891357 -14.27800532 319.09912151 -14.27796422 318.27509333 C-14.27788334 316.65771854 -14.27779975 315.04034376 -14.27771343 313.42296897 C-14.27648768 288.25431027 -14.29150426 263.08570544 -14.31885856 237.91706216 C-14.34956406 209.65321763 -14.366792 181.38940849 -14.36493212 153.12554622 C-14.36478285 150.11311305 -14.36468544 147.10067988 -14.36462349 144.0882467 C-14.36460018 143.34648543 -14.36457687 142.60472417 -14.36455285 141.84048528 C-14.36449125 129.89165449 -14.37727549 117.94287038 -14.39448802 105.99405348 C-14.41142237 93.99027369 -14.41343561 81.98656236 -14.40026937 69.98277725 C-14.3937182 63.47678825 -14.39369992 56.97096884 -14.41097587 50.46499574 C-14.42661665 44.51377694 -14.42393539 38.56286348 -14.40640761 32.61165254 C-14.40331781 30.45420857 -14.40704385 28.29674232 -14.41812776 26.13932462 C-14.43216264 23.21472298 -14.42173029 20.29120517 -14.40501541 17.3666414 C-14.41495177 16.52201337 -14.42488813 15.67738534 -14.43512559 14.80716252 C-14.37084242 9.5151674 -13.50466302 6.39599752 -9.90723747 2.25299966 C-6.59821685 0.11384463 -3.89505758 0.00215793 0 0 Z " fill="#FEFEFE" transform="translate(1236.90723747015,1112.747000336647)"/>
</svg>
