<svg viewBox="0 0 400 400" xmlns="http://www.w3.org/2000/svg">
  <!-- Background matching page color -->
  <rect width="400" height="400" fill="#f5f1ed"/>
  
  <!-- Network nodes (coral/terracotta color) -->
  <circle cx="100" cy="120" r="25" fill="#C08970"/>
  <circle cx="200" cy="80" r="30" fill="#C08970"/>
  <circle cx="320" cy="140" r="28" fill="#C08970"/>
  <circle cx="160" cy="180" r="35" fill="#C08970"/>
  <circle cx="80" cy="220" r="22" fill="#C08970"/>
  <circle cx="280" cy="240" r="26" fill="#C08970"/>
  
  <!-- Connecting lines -->
  <line x1="100" y1="120" x2="160" y2="180" stroke="#C08970" stroke-width="6" stroke-linecap="round"/>
  <line x1="200" y1="80" x2="160" y2="180" stroke="#C08970" stroke-width="6" stroke-linecap="round"/>
  <line x1="320" y1="140" x2="160" y2="180" stroke="#C08970" stroke-width="6" stroke-linecap="round"/>
  <line x1="160" y1="180" x2="80" y2="220" stroke="#C08970" stroke-width="6" stroke-linecap="round"/>
  <line x1="160" y1="180" x2="280" y2="240" stroke="#C08970" stroke-width="6" stroke-linecap="round"/>
  <line x1="280" y1="240" x2="320" y2="140" stroke="#C08970" stroke-width="6" stroke-linecap="round"/>
  
  <!-- Hand illustration (simplified black curves) -->
  <path d="M60 280 Q 80 270 100 280 Q 120 290 140 300 Q 160 310 180 320 Q 200 330 220 340 Q 240 350 260 360 Q 280 370 300 380" 
        stroke="#000" stroke-width="8" fill="none" stroke-linecap="round"/>
  
  <!-- Hand fingers -->
  <path d="M80 300 Q 85 290 90 285 Q 95 280 100 275 Q 105 270 110 275 Q 115 280 120 285 Q 125 290 130 295" 
        stroke="#000" stroke-width="6" fill="none" stroke-linecap="round"/>
  <path d="M95 305 Q 100 295 105 290 Q 110 285 115 280 Q 120 275 125 280 Q 130 285 135 290" 
        stroke="#000" stroke-width="6" fill="none" stroke-linecap="round"/>
  <path d="M110 310 Q 115 300 120 295 Q 125 290 130 285 Q 135 280 140 285" 
        stroke="#000" stroke-width="6" fill="none" stroke-linecap="round"/>
  <path d="M125 315 Q 130 305 135 300 Q 140 295 145 290" 
        stroke="#000" stroke-width="6" fill="none" stroke-linecap="round"/>
  
  <!-- Thumb -->
  <path d="M140 320 Q 150 315 160 310 Q 170 305 180 300 Q 190 295 200 300 Q 210 305 220 310" 
        stroke="#000" stroke-width="8" fill="none" stroke-linecap="round"/>
  
  <!-- Wrist/arm extension -->
  <path d="M300 380 Q 320 385 340 390 Q 360 395 380 400" 
        stroke="#000" stroke-width="8" fill="none" stroke-linecap="round"/>
</svg>