<svg version="1.1" viewBox="0.0 0.0 960.0 540.0" fill="none" stroke="none" stroke-linecap="square" stroke-miterlimit="10" xmlns:xlink="http://www.w3.org/1999/xlink" xmlns="http://www.w3.org/2000/svg"><clipPath id="g374680eaacc_1_11.0"><path d="m0 0l960.0 0l0 540.0l-960.0 0l0 -540.0z" clip-rule="nonzero"/></clipPath><g clip-path="url(#g374680eaacc_1_11.0)"><path fill="#ffffff" d="m0 0l960.0 0l0 540.0l-960.0 0z" fill-rule="evenodd"/><g filter="url(#shadowFilter-g374680eaacc_1_11.1)"><use xlink:href="#g374680eaacc_1_11.1" transform="matrix(1.0 0.0 0.0 1.0 0.0 9.282967979002642)"/></g><defs><filter id="shadowFilter-g374680eaacc_1_11.1" filterUnits="userSpaceOnUse"><feGaussianBlur in="SourceAlpha" stdDeviation="9.282968" result="blur"/><feComponentTransfer in="blur" color-interpolation-filters="sRGB"><feFuncR type="linear" slope="0" intercept="0.0"/><feFuncG type="linear" slope="0" intercept="0.0"/><feFuncB type="linear" slope="0" intercept="0.0"/><feFuncA type="linear" slope="0.25" intercept="0"/></feComponentTransfer></filter></defs><g id="g374680eaacc_1_11.1"><path fill="#000000" fill-opacity="0.0" d="m22.453024 432.0l915.1181 0" fill-rule="evenodd"/><path stroke="#000000" stroke-width="16.0" stroke-linejoin="round" stroke-linecap="butt" d="m22.453024 432.0l915.1181 0" fill-rule="evenodd"/></g><g filter="url(#shadowFilter-g374680eaacc_1_11.2)"><use xlink:href="#g374680eaacc_1_11.2" transform="matrix(1.0 0.0 0.0 1.0 0.0 9.282967979002642)"/></g><defs><filter id="shadowFilter-g374680eaacc_1_11.2" filterUnits="userSpaceOnUse"><feGaussianBlur in="SourceAlpha" stdDeviation="9.282968" result="blur"/><feComponentTransfer in="blur" color-interpolation-filters="sRGB"><feFuncR type="linear" slope="0" intercept="0.0"/><feFuncG type="linear" slope="0" intercept="0.0"/><feFuncB type="linear" slope="0" intercept="0.0"/><feFuncA type="linear" slope="0.25" intercept="0"/></feComponentTransfer></filter></defs><g id="g374680eaacc_1_11.2"><path fill="#000000" fill-opacity="0.0" d="m22.439632 19.2l915.1181 0l0 441.6063l-915.1181 0z" fill-rule="evenodd"/><path fill="#000000" d="m265.99252 253.95085q9.28125 6.3750153 15.078125 16.031265q5.796875 9.640625 5.796875 22.6875q0 15.671875 -6.59375 26.484375q-6.59375 10.796875 -18.921875 17.03125q-13.0625 6.671875 -30.109375 9.4375q-17.03125 2.75 -40.09375 2.75l-106.890625 0l0 -11.3125q4.484375 -0.4375 11.296875 -1.296875q6.828125 -0.875 9.578125 -2.046875q5.375 -2.171875 7.328125 -5.71875q1.953125 -3.5625 1.953125 -9.21875l0 -145.03127q0 -5.234375 -1.59375 -8.703125q-1.59375 -3.484375 -7.6875 -6.09375q-4.5 -1.890625 -10.453125 -3.125q-5.9375 -1.234375 -10.421875 -1.953125l0 -11.3125l111.8125 0q42.21875 0 60.921875 11.609375q18.71875 11.59375 18.71875 34.21875q0 10.453125 -4.21875 18.359375q-4.203125 7.890625 -12.03125 13.703125q-7.109375 5.359375 -16.96875 9.28125q-9.859375 3.90625 -21.171875 6.515625l0 2.765625q11.3125 1.15625 23.484375 5.0q12.1875 3.84375 21.1875 9.9375zm-46.703125 -61.9375q0 -17.109375 -9.65625 -26.671875q-9.640625 -9.578125 -28.921875 -9.578125q-2.765625 0 -7.1875 0.21875q-4.421875 0.203125 -7.609375 0.359375l0 76.28125l7.53125 0q23.5 0 34.671875 -10.9375q11.171875 -10.953125 11.171875 -29.671875zm10.15625 98.781265q0 -21.46875 -12.765625 -32.921875q-12.765625 -11.468765 -36.703125 -11.468765q-2.75 0 -7.328125 0.21875q-4.5625 0.21875 -6.734375 0.359375l0 75.281265q1.296875 5.375 8.109375 9.078125q6.828125 3.6875 16.546875 3.6875q17.25 0 28.0625 -11.59375q10.8125 -11.609375 10.8125 -32.640625zm243.96078 54.53125q-6.390625 2.75 -15.09375 5.0625q-8.703125 2.328125 -18.421875 2.328125q-17.84375 0 -26.25 -5.28125q-8.40625 -5.296875 -11.453125 -15.15625l-0.875 0q-4.9375 4.921875 -9.5 8.40625q-4.5625 3.484375 -9.796875 5.953125q-6.8125 3.1875 -13.125 4.703125q-6.296875 1.53125 -17.625 1.53125q-16.8125 0 -28.71875 -9.9375q-11.890625 -9.9375 -11.890625 -26.328125q0 -9.421875 2.609375 -16.015625q2.625 -6.609375 7.40625 -11.6875q4.34375 -4.640625 10.078125 -7.6875q5.734375 -3.046875 12.546875 -5.65625q13.046875 -4.78125 31.328125 -9.921875q18.28125 -5.15625 26.6875 -9.21875l0 -13.92189q0 -3.625 -0.578125 -9.578125q-0.578125 -5.953125 -2.46875 -10.015625q-2.03125 -4.640625 -6.390625 -7.828125q-4.34375 -3.1875 -11.453125 -3.1875q-6.375 0 -10.65625 1.8125q-4.28125 1.8125 -6.890625 3.703125q0.4375 2.890625 2.46875 8.84375q2.03125 5.953125 2.03125 11.453125q0 2.46875 -1.3125 6.171875q-1.296875 3.703125 -3.765625 5.875q-3.34375 2.890625 -7.484375 4.5q-4.125 1.59375 -12.671875 1.59375q-12.1875 0 -18.421875 -5.875q-6.234375 -5.875 -6.234375 -15.3125q0 -8.109375 6.453125 -14.5625q6.453125 -6.46875 15.734375 -10.671875q9.140625 -4.34375 21.03125 -6.734375q11.890625 -2.40625 22.046875 -2.40625q14.0625 0 25.8125 1.671875q11.75 1.671875 21.171875 6.890625q9.0 5.078125 14.296875 14.734375q5.296875 9.640625 5.296875 25.15625q0 16.39064 -0.65625 38.875015q-0.65625 22.46875 -0.65625 29.578125q0 6.53125 1.953125 10.3125q1.96875 3.765625 6.03125 5.640625q2.453125 1.171875 7.75 1.390625q5.296875 0.203125 9.65625 0.203125l0 10.59375zm-72.09375 -75.5625q-8.125 2.75 -16.109375 6.3125q-7.96875 3.546875 -13.046875 7.46875q-5.359375 4.0625 -8.40625 10.375q-3.046875 6.296875 -3.046875 14.859375q0 11.3125 5.140625 16.390625q5.15625 5.078125 12.703125 5.078125q7.96875 0 13.109375 -3.265625q5.15625 -3.265625 9.078125 -8.046875l0.578125 -49.171875zm150.4049 83.546875q-14.0625 0 -27.484436 -4.140625q-13.4062195 -4.140625 -20.81247 -8.78125l-4.34375 9.875l-11.3125 0l-1.890625 -54.109375l10.59375 0q2.171875 6.53125 7.25 14.734375q5.078125 8.1875 11.5937195 14.71875q6.828125 6.515625 15.59375 11.015625q8.781311 4.5 18.781311 4.5q13.203125 0 19.65625 -5.140625q6.453125 -5.15625 6.453125 -15.890625q0 -5.796875 -2.90625 -9.5625q-2.890625 -3.78125 -7.96875 -6.546875q-5.65625 -2.890625 -12.40625 -4.921875q-6.734375 -2.03125 -16.609375 -4.9375q-9.859436 -2.890625 -16.890686 -5.859375q-7.0312195 -2.984375 -14.5780945 -9.359375q-6.53125 -5.65625 -10.453125 -13.640625q-3.90625 -7.984375 -3.90625 -19.000015q0 -20.453125 17.1875 -33.0625q17.18747 -12.625 45.03128 -12.625q13.203125 0 24.296875 2.6875q11.09375 2.671875 18.640625 5.875l3.046875 -8.5625l11.03125 0l2.3125 49.453125l-10.296875 0q-5.078125 -15.078125 -17.40625 -26.03125q-12.328125 -10.953125 -26.546875 -10.953125q-11.15625 0 -17.546875 4.640625q-6.375061 4.640625 -6.375061 12.90625q0 11.03125 9.343811 15.96875q9.359375 4.921875 26.1875 9.28125q25.96875 6.6718903 38.0 18.20314q12.03125 11.53125 12.03125 29.359375q0 23.796875 -18.640625 36.859375q-18.625 13.046875 -48.65625 13.046875zm176.81018 -4.9375l-91.671875 0l0 -10.59375q3.78125 -0.28125 7.40625 -0.71875q3.625 -0.4375 6.234375 -1.453125q4.640625 -1.734375 6.515625 -5.0q1.890625 -3.265625 1.890625 -8.625l0 -84.42189q0 -5.078125 -2.328125 -8.921875q-2.3125 -3.84375 -5.78125 -6.15625q-2.625 -1.75 -7.921875 -3.34375q-5.28125 -1.59375 -9.640625 -2.03125l0 -10.578125l71.078125 -3.78125l2.171875 2.171875l0 115.17189q0 5.078125 2.171875 8.640625q2.1875 3.546875 6.234375 5.28125q2.90625 1.3125 6.390625 2.328125q3.484375 1.015625 7.25 1.4375l0 10.59375zm-21.171875 -197.84377q0 11.03125 -8.484375 18.796875q-8.484375 7.75 -20.09375 7.75q-11.75 0 -20.234375 -7.75q-8.484375 -7.765625 -8.484375 -18.796875q0 -11.015625 8.484375 -18.84375q8.484375 -7.84375 20.234375 -7.84375q11.75 0 20.15625 7.84375q8.421875 7.828125 8.421875 18.84375zm101.66687 202.78127q-14.0625 0 -27.484375 -4.140625q-13.40625 -4.140625 -20.8125 -8.78125l-4.34375 9.875l-11.3125 0l-1.890625 -54.109375l10.59375 0q2.171875 6.53125 7.25 14.734375q5.078125 8.1875 11.59375 14.71875q6.828125 6.515625 15.59375 11.015625q8.78125 4.5 18.78125 4.5q13.203125 0 19.65625 -5.140625q6.453125 -5.15625 6.453125 -15.890625q0 -5.796875 -2.90625 -9.5625q-2.890625 -3.78125 -7.96875 -6.546875q-5.65625 -2.890625 -12.40625 -4.921875q-6.734375 -2.03125 -16.609375 -4.9375q-9.859375 -2.890625 -16.890625 -5.859375q-7.03125 -2.984375 -14.578125 -9.359375q-6.53125 -5.65625 -10.453125 -13.640625q-3.90625 -7.984375 -3.90625 -19.000015q0 -20.453125 17.1875 -33.0625q17.1875 -12.625 45.03125 -12.625q13.203125 0 24.296875 2.6875q11.09375 2.671875 18.640625 5.875l3.046875 -8.5625l11.03125 0l2.3125 49.453125l-10.296875 0q-5.078125 -15.078125 -17.40625 -26.03125q-12.328125 -10.953125 -26.546875 -10.953125q-11.15625 0 -17.546875 4.640625q-6.375 4.640625 -6.375 12.90625q0 11.03125 9.34375 15.96875q9.359375 4.921875 26.1875 9.28125q25.96875 6.6718903 38.0 18.20314q12.03125 11.53125 12.03125 29.359375q0 23.796875 -18.640625 36.859375q-18.625 13.046875 -48.65625 13.046875z" fill-rule="nonzero"/></g></g></svg>